<?xml version="1.0" encoding="UTF-8"?>
<svg width="117mm" height="26.8mm" version="1.1" viewBox="0 0 117 26.8" xmlns="http://www.w3.org/2000/svg">
 <defs>
  <filter id="a" color-interpolation-filters="sRGB">
   <feBlend in2="BackgroundImage" mode="luminosity"/>
  </filter>
  <filter id="b" color-interpolation-filters="sRGB">
   <feBlend in2="BackgroundImage" mode="luminosity"/>
  </filter>
 </defs>
 <g transform="translate(-.375 -271)">
  <path d="m34.8 271c-0.531-0.0308-1.34 0.41-2.45 1.74 3.1 2.69 4.05-1.65 2.45-1.74m20.6 0.346c-0.142-0.0139-0.353 0.0993-0.637 0.451 0.848 0.764 1.06-0.41 0.637-0.451m-23.9 0.275c-0.0249-6e-3 -0.0487-7e-3 -0.0713 6.6e-4 -0.164 0.0548-0.25 0.504-0.0473 1.69 1.07-0.0233 0.493-1.6 0.119-1.69l-7e-5 -2e-5m-27.6-0.373c-2.33 0.159-2.88-7e-3 -3.22 2.56-0.766 5.68-0.435 17.6-0.0717 22 0.676 2.62 7.32 1.73 8.95 1.91 8.69 0.369 18.1-0.0911 25.5-0.214 3.96-0.0689 6.99-0.129 9.02-0.201 0.121 0.0633 0.215 0.0479 0.277-0.0138 3.02-0.116 3.22-0.275 0.01-0.559-0.0778-0.0955-0.21-0.13-0.394-0.0361-6.33-0.387-7.85-0.29-12.4-0.165-6.56 0.136-27.1 0.509-29-0.568-1.14-0.637-1.01-17-0.616-20.5-0.0825-2.09 0.556-2.23 1.66-2.6 2.04-0.681 4.95-0.0568 4.87-0.281-0.354-0.776 5e-3 -1.43-0.307-1.39-0.319 0.0851-2.1 0.0661-4.3 0.0541l-3.7e-4 -4e-5m74.7 0.519c-1.34-0.0133-4.46-0.0379-4.51 0.45 0.0679 1.35 2.41 0.204 4.26 0.965 0.798 0.328 0.562 1.66 0.789 2.85 0.444 1.71 1.65 19.2-0.501 19.6-7.86 1.72-22.2-0.602-15.5 1.55l3.99 0.102c4.14-0.0245 8.64 0.116 12.9-0.286 1.04 0.133 0.311-0.948 0.66-3.05 0.927-5.58-0.107-17-0.528-21.4-0.0558-0.573-0.71-0.791-1.51-0.799v-7e-5m-27.4 0.303c-2.43 0.0825-4.6 0.913 0.605 1.22 2.62-0.76 0.57-1.23-0.605-1.22m-14.4 0.204c-0.0624 0.0171-0.143 0.104-0.243 0.304 0.432 0.863 0.513-0.378 0.243-0.304m18.3 0.0256c-0.183 0.0201-0.12 0.213 0.432 0.704 3.87 1.3 0.516-0.61-0.339-0.702-0.0356-3e-3 -0.0667-5e-3 -0.0929-2e-3v3e-5m-15.2 0.175c-0.335 0.0204-0.771 0.126-1.31 0.364 2.32 1.03 2.76-0.453 1.31-0.364m4.5 0.0256c-0.626 7e-3 -1.4 0.173-2.17 0.626 4.63 0.739 4.04-0.65 2.17-0.626m17.1 0.109c-0.0793 6e-3 -0.174 0.0971-0.276 0.33 0.693 1.24 0.62-0.355 0.276-0.33m-25.2 0.344c-0.0615 9e-3 -0.144 0.0474-0.251 0.13 0.216 0.848 0.583-0.0715 0.305-0.13-0.016-3e-3 -0.0341-3e-3 -0.0546-6.6e-4l6e-5 2e-5m21.4 22.8c-0.27-0.0742-0.189 1.17 0.243 0.304-0.0997-0.199-0.181-0.287-0.243-0.304" stroke-width=".0125"/>
 </g>
 <g transform="translate(-.375 -271)">
  <path transform="matrix(.265 0 0 .265 0 1.32)" d="m333 1037c-1.82 0.01-3.54 0.469-4.96 2.17-2.72 4.07 2.15 6.03 4.08 8.29 0.039 8.3 0.596 16.6 0.492 24.9 0.262 6.69-0.856 13.8 1.7 20.1 2.15 5.68 7.76 7.69 12.7 8.03 6.5 1.27 12.4-2.68 18.3-5.24 2.55 0.77 3.28 5.69 6.66 5.28 3.44-0.421 8.93-0.502 8.78-5.65-1.09-2.09-2.86-4.03-2.88-6.69 0.4-6.23 0.278-12.8 0.203-18.8-0.0658-2.65 0.536-6.98-0.0996-14.4-0.232-3.77 0.197-7.77 3.27-9.89 2.97-3.66-0.545-9.04-4.51-7.7-3.36-0.034-6.78 0.281-10.1-0.359-3.78-0.339-6.82 4.7-4.46 8.43 1.51 1.53 4.15 2.07 3.75 5.27-0.431 7.69 0.285 15.7 0.592 23.5 0.285 1.92 0.379 5.19 0.551 7.81 0.288 4.37-10.9 6.27-13.3 5.97-3.7-0.335-8.27-1.81-9.07-6.71-1.5-7.45-1.41-15.2-1.32-22.8 0.607-3.53-0.438-8.1 1.93-10.8 2.49-1.33 6.31-4.41 4.15-7.98-2.13-3.45-6.26-2.21-9.38-2.15-2.25 0.154-4.76-0.594-7.1-0.586zm77.7 16.1c-6.6 0.072-14.1 1.26-18.4 6.5-3.04 3.89-3.9 9.3-2.34 13.9 1.9 4.8 7.49 6.68 12.3 7.88 4.14 1.21 8.57 1.26 12.6 2.7 3 0.627 4.75 4.78 1.48 6.29-4.15 1.63-8.61-0.258-12.4-1.93-2.96-1.5-7.01-1.68-9.49 0.762-2.39 1.98-2.22 5.96 0.9 7.13 4.63 2.31 9.94 3.02 15.1 3.53 5.69 0.118 12.1-0.258 16.6-3.97 3.79-3.61 4.64-9.56 2.57-14.2-2.35-4.75-8.21-6.08-13.1-7.18-4.16-0.954-8.93-1.07-12.3-3.92-2.37-2.25-1.6-6.86 1.83-7.74 3.31-0.986 6.96-0.914 10.3-0.256 2.73 0.759 4.76 2.76 5.55 5.13 1.46 2.84 5.62 1.48 8.09 0.889 3.35-1.27 3.06-4.65 1.4-7.35-2.48-5.02-8.39-7.24-13.9-7.8-2.26-0.278-4.54-0.365-6.81-0.346z" enable-background="new" filter="url(#b)" stroke="#fff" stroke-width=".746"/>
 </g>
 <g transform="translate(-.375 -271)" stroke="#fff" stroke-opacity=".408">
  <path d="m58.9 292s0.0975 0.434 0.226 0.618c0.387 0.552 2.14 0.487 2.57-0.101 0.708-0.959-0.29-1.55-0.292-1.65-6e-3 -2.76-0.179-5.63 0.023-8.17 1.65 0.0314 1.7-2.43 0.28-2.44-1.26-0.0103-2.15 0.0213-3.43-0.0158-0.741 6e-3 -1.28 1.67-0.286 2.16 0.159 0.0249 0.508 0.0464 0.494 0.443-0.0796 2.59-0.0542 4.49-0.115 6.72-5.69 2-3.8-5.98-3.82-7.03 1.12-0.308 1.2-2.46 0.0504-2.44-1.33 0.0198-2.63 0.064-3.62 0.0443-0.566-0.0114-0.332 1.26-0.0943 1.7 0.146 0.275 0.757 0.284 0.74 0.482 0.202 7.51-0.496 12.4 7.27 9.69l4.7e-4 9e-5" enable-background="new" filter="url(#a)" stroke-width=".18"/>
  <path d="m43.7 279c-1.57-0.0372-3.09 0.723-4.05 1.96-2.38 2.87-2.01 7.65 0.903 10 1.29 1.04 3.13 1.53 4.71 0.883 2.19-0.719 3.62-2.89 3.91-5.11 0.404-2.65-0.67-5.59-2.96-7.08-0.748-0.467-1.63-0.698-2.51-0.681m-0.0668 2.91c1.21 0.144 2.21 1.15 2.49 2.32 0.415 1.42 0.441 3.15-0.601 4.31-0.585 0.677-1.57 1.09-2.43 0.686-0.771-0.287-1.44-0.866-1.68-1.67-0.539-1.53-0.58-3.39 0.373-4.77 0.417-0.597 1.13-0.901 1.85-0.881" enable-background="new" filter="url(#a)" stroke-width=".179"/>
  <path d="m69.2 275c-0.231 8e-3 -0.457 0.0992-0.649 0.294-0.311 0.314-2.9 1.05-2.36 2.59 0.515 1.13 0.896 0.638 1.23 0.91 0.124 0.542 0.0851 0.528 0.0798 0.683-0.344 0.0889-1.41 0.0146-2.11 0.0897-1.48 0.823-1.62 2.52 0.414 2.78 0.658 0.0865 0.748 0.227 1.38 0.177-0.0262 1.46-1.08 7.91 0.938 10 2.02 1.1 4.1-1.35 2.76-2.64-0.507-2.7-0.597-4.85-0.366-7.4 0.878 2e-3 3.4 0.486 3.4-1.62 2e-3 -1.68-2.06-1.24-3.32-1.32-0.104-0.944-0.0531-1.29 4e-3 -2.93 0.0166-0.934-0.715-1.66-1.41-1.64 0 0-9e-5 -1e-5 -9e-5 -1e-5" enable-background="new" filter="url(#a)" stroke-width=".18"/>
  <path d="m23.4 278c-0.422 0.904 1.22 0.996 1.16 1.97 0.448 4.1 0.0667 8.15-0.161 12 0.208 0.704 1.71 0.982 2.37 0.809 11.5 3.14 12.4-15.7 0.796-12.9-0.0419-0.832 0.205-2.49-0.213-3.32-1.39-0.86-3.3 0.543-3.95 1.45m4.04 11.5c-0.0553-1.91 0.259-4.2 0.27-6.11 7.13-4.81 6.93 10.6-0.27 6.11" enable-background="new" filter="url(#a)" stroke-width=".179"/>
  <path d="m9.21 276c-0.992 0.706-0.382 2.22 0.335 2.53 0.602 0.214 1.61-0.629 0.842 0.91-1.15 3.08-2.02 6.31-3.11 9.42-0.579 0.583-1.37 0.423-1.35 1.5 0.0442 0.971 0.602 1.78 1.43 1.71 1.37 0.0457 2.47-0.0889 3.84-7e-3 2.53 0.0514 2.12-2.63 0.713-2.72-0.508 0.0394-0.567-0.905-0.205-1.87 1.39 0.0268 3.2-0.12 4.53-0.014 0.226 0.514 1.07 1.78 0.282 1.87-0.916 0.577-0.801 2.64 0.223 2.66 1.44-7e-3 4.1 0.415 4.78-0.459 0.526-0.917 0.216-2.38-0.803-2.53-2.28-2.71-3.19-14.1-6.19-14.9-1.98-0.192-4 0.777-5.31 1.86v6e-5m4.42 3.81c0.494 1.22 1.11 3.6 1.52 4.89-0.712 0.0193-2.12 0.072-2.73 0.0298 0.249-1.31 1.09-5.34 1.21-4.92v7e-5" stroke-width=".216"/>
 </g>
</svg>
