<?xml version="1.0" encoding="UTF-8"?>
<svg width="209mm" height="26.1mm" version="1.1" viewBox="0 0 209 26.1" xmlns="http://www.w3.org/2000/svg">
 <defs>
  <filter id="c" color-interpolation-filters="sRGB">
   <feBlend in2="BackgroundImage" mode="luminosity"/>
  </filter>
  <filter id="b" color-interpolation-filters="sRGB">
   <feBlend in2="BackgroundImage" mode="luminosity"/>
  </filter>
  <filter id="a" color-interpolation-filters="sRGB">
   <feBlend in2="BackgroundImage" mode="luminosity"/>
  </filter>
 </defs>
 <path d="m10.4 1.97c-1.33-0.0254-2.3 0.868-3.4 1.61-1.41 0.942-0.422 2.88 0.963 2.46 0.38-0.115 0.551-0.1 0.592 0.35 0.0285 3.69 0.0071 6 0.0357 8.13 0.119 4.84-0.568 3.18-1.09 3.75-1.24 0.714 0.0793 2.71 1.19 2.77 1.2 0.0653 1.89-0.072 2.4-0.779 8.17 3.8 9.76-3.62 6.6-7.19 5.52-6.41 0.267-11.4-5.98-9.75-0.0386-0.311-0.627-1.18-1.31-1.35m3.55 4.51c4.5-0.117 3.6 5.33-2.13 4.58 0.0316-2.7-0.154-2.64-0.127-4.16 0.865-0.278 1.62-0.409 2.26-0.425m31.2 1.56c-1 0.0079-2.22 0.215-2.93 0.246-0.527 0.258-0.772 1.09-0.0098 1.69 0.589 0.289 0.507-0.0381 0.7 0.146-0.253 1.47-1.19 3.89-1.88 5.87-0.781-2.35-1.2-3.11-1.7-5.35-0.0066-0.376 0.326-0.392 0.478-0.413 0.952-0.451 0.438-2.07-0.268-2.08-1.22 0.0158-2.06-0.108-3.26-0.031-1.09 0.129-1.63 1.84-0.0558 2.14 0.861 1.82 1.5 3.76 2.19 5.66 0.254 0.672 2.02 5.81-1.27 6.11-2.21-0.0789-2.33 2.91-0.0279 2.64 1.44-0.0494 3.13 0.0855 4.2-0.0217 1.95-0.194 1.02-1.68 0.695-2.14-0.673-1.17 3.14-11.9 4.63-12.7 0.233-0.387 0.289-1.2-0.062-1.49-0.296-0.219-0.822-0.286-1.42-0.282 0 0-3e-6 -8e-6 -3e-6 -8e-6m-13.4 0.0455c-0.828-0.0036-1.55 0.0334-2.49 0.0047-1.02 0.138-1.26 1.72-0.282 2.23 0.156 0.0256 0.499 0.0479 0.485 0.457-0.0782 2.67 0.0637 4.6-0.113 6.92-4.4 2.22-4.45-4.04-3.61-7.07 0.202-0.213 0.481-0.128 0.725-0.16 0.793 0.0749 0.979-2.24-0.137-2.31-1.55-0.0021-2.94-0.0543-4.16 0.0134-0.887 0.0207-1.12 1.83-0.431 2.21 0.144 0.283 1-0.0857 0.983 0.118 0.0726 6.7-1.1 12.6 7.15 9.72h5.29e-4s0.0956 0.448 0.222 0.637c0.38 0.569 2.37 0.741 2.78-0.234 0.428-1.09-0.582-1.7-0.609-2.83-0.012-2.12-0.07-4.64 0.178-7.07 1.37 0.0323 1.39-2.67 0.187-2.62-0.311-0.0143-0.598-0.02-0.874-0.0212l-1.3e-5 -5e-6m-18.7 6.11c4.62 0.0968 3.22 5.22-0.938 2.86-6e-3 -0.391-0.0711-2.44-0.0682-2.81 0.363-0.0419 0.698-0.0576 1.01-0.0512" enable-background="new" filter="url(#c)" stroke="#fff" stroke-opacity=".408" stroke-width=".197"/>
 <g stroke="#fff">
  <path d="m81.9 20.4s0.0954 0.442 0.221 0.629c0.378 0.562 2.09 0.496 2.51-0.104 0.692-0.976-0.283-1.57-0.285-1.68l-0.0215-0.888s0.143-3.15 0.143-3.15c0.098-1.7 0.0357-4.22 0.169-4.4 1.41-0.0563 1-2.02 0.118-2.13-1.24-0.108-2.08-0.047-3.33-0.0846-0.724 6e-3 -1.4 1.41-0.435 1.91 0.155 0.0254 0.496 0.0471 0.482 0.451-0.0294 0.866 0.0285 2.68-0.0267 5.3-1e-3 1.07-0.0298 1.19-0.0648 1.66-0.968 0.507-1.59 0.744-2.41 0.581-0.531-0.195-0.842-0.248-1.14-0.913-0.402-1.54-0.186-2.97-0.209-4.12 0.0608-0.509-0.186-2.43 0.166-2.8 0.201-0.21 0.523 0.0553 0.72-0.158 0.317-0.341 0.421-1.12 0.0512-1.51-0.479-0.499-1.38-0.26-2.21-0.285-0.663-0.0191-1.92-0.32-2.39 0.11-0.365 0.332-0.291 0.936-0.0593 1.39 0.143 0.28 0.993 0.207 0.976 0.409-0.0217 1.3 0.127 4.05 0.0669 6.01 0.108 1.44-0.256 3.21 1.22 4.15 0.603 0.398 2 0.55 3.12 0.395 1.18-0.112 1.56-0.411 2.62-0.779l5e-4 2.5e-4" enable-background="new" filter="url(#b)" stroke-width=".175"/>
  <path d="m65.8 21.7c11.8-9e-3 7.05-17.4-0.197-17.4-7.28 0.0415-9.47 17.4 0.197 17.4m1.05-3.24c-0.645 0.271-1.08 0.412-1.77 0.132-5.09-1.78-2.73-10.2 0.764-10.1 4.24 0.112 5.33 8.13 1.01 10" enable-background="new" filter="url(#b)" stroke-width=".194"/>
  <path d="m88.9 19.1c0.171-0.2 0.0988-1.86 0.102-3.73l0.0391-2.77s-0.0123-0.74-0.0556-1.28c-0.0876-0.475-1.11 0.0738-1.44-0.415-0.847-1.24 0.334-1.53 0.978-2.12 0.909-0.746 1.63-0.0244 2.67 0.557l0.707 0.0664 1.13-0.44c1.71-0.6 2.65-0.645 4.07-0.212 1.43 0.381 1.92 1.74 1.12 2.55-0.753 0.67-1.66 0.825-2.55 0.184-1.84-1.17-2.59-0.251-3.52 0.442-0.0132 0.513-0.162 1.18-0.0796 2.35 0.128 1.82 0.0566 3.51 0.0846 4.46 0.0132 0.442 0.841 0.724 1.06 0.744 1.03 0.159 0.953 1.8-0.0452 1.84-1.73 0.0169-2.59 5e-3 -4.3-0.0562-1.23-0.0765-1.14-1.48-0.365-1.85l0.399-0.321" enable-background="new" filter="url(#b)" stroke-width=".179"/>
 </g>
 <g stroke="#fff">
  <path d="m123 19.3c0.278-2.77-0.0172-5.5 0.0848-8.13 0.0148-0.371-1.31-0.152-1.41-0.398 1.1-2.53 3.1-2.34 3.78-1.48 1.48-0.389 3.68-1.07 5.04-0.543 2.99 1.16 0.88 4.09-1.11 3.18-1.51-0.69-2.38-0.109-3.3 0.464-0.0574 2-0.0895 3.97-0.0312 6.29 0.013 0.435 0.685 0.711 0.899 0.732 1.02 0.156 0.942 1.77-0.0448 1.81-1.71 0.0174-2.25-0.0175-3.94-0.0769-0.941-0.0584-1.12-1.14-0.864-1.62 0.253-0.194 0.588-0.191 0.898-0.226" enable-background="new" filter="url(#a)" stroke-width=".173"/>
  <path d="m168 20.7c1.54 1.48 4.01-0.952 2.71-1.75-0.192-1.58-0.913-8.34 0.751-8.67 0.795-0.474 0.31-1.8-0.638-1.69-1.11-0.0621-2.23-5e-3 -3.34-4e-3 -0.911 0.178-1.13 1.73-0.0775 1.83 0.616 2.02 0.3 5.88 0.21 7.59-5.26 1.4-3.62-1.21-3.99-7.47 1.43-0.213 1.16-2.07-0.847-1.98-0.918 0.0443-1.95-0.213-2.78 0.281-0.443 0.371-0.435 1.4 0.252 1.48 1.45 4.02-2.66 13.1 7.74 10.4" enable-background="new" filter="url(#a)" stroke-width=".171"/>
  <path d="m183 21c0.62-0.744-0.572-2.18-0.982-2.91-9.47 1.55-5.67-9.78-1.1-5.93 1.74 3.12 4.12-1.31 1.65-3.09-10.9-3.74-14.3 13.6 0.428 11.9" enable-background="new" filter="url(#a)" stroke-width=".182"/>
  <path d="m190 5.24c-0.534 0.0417-1.14 0.4-1.5 0.741-0.293 0.298-2.02 0.917-1.26 2.05 0.333 0.515 0.76 0.145 0.899 0.471 0.0114 0.544-0.01 0.47-0.0595 0.617-0.1 0.295-1.09 0.0624-1.75 0.133-1.33 0.403-1.52 2.35 0.389 2.61 0.619 0.082 0.434 0.0375 1.25 0.0397 0.239 3.4-0.917 8.73 0.599 9.54 2.3-0.208 4.7-1.55 2.95-3.49-1.27-1.3-0.425-4.12-0.419-6.22 0.825-0.167 3.4 0.32 3.41-1.34 2e-3 -1.59-2.22-1.23-3.41-1.31-0.167-1.29 0.0627-1.36-0.0317-2.68-0.0638-0.923-0.523-1.2-1.06-1.16l5e-5 2e-5" enable-background="new" filter="url(#a)" stroke-width=".174"/>
  <path d="m197 14.2c0.901 2.47 3.11 2.35 4.59 2.99 1.68 0.584 0.857 2.3-2.52 1.07-2-0.632-2.51 1.48-1.39 2.08 6.69 3.29 10.7-3.17 5.94-5.02-1.26-0.426-2.35-0.165-3.43-0.939-2.68-2.79 3.77-3.36 3.17-0.813 1.66 0.278 2.98-0.904 2.35-2.06-2.88-4.82-10.6-1.7-8.71 2.7" enable-background="new" filter="url(#a)" stroke-width=".161"/>
  <path d="m139 8.51c-7.04 0.114-6.64 12.7 0.137 12.7 7.77-0.0736 6.42-12.8-0.137-12.7m0.0425 2.96c3.07 0.146 3.75 6.73-0.023 6.72-3.94-0.0103-2.87-6.86 0.023-6.72" enable-background="new" filter="url(#a)" stroke-width=".171"/>
  <path d="m109 21.1c-1.27 0.0749-2.8 0.138-2.82-0.924-0.0222-1.25 1.03-0.798 0.99-1.5-0.13-2.11 0.0999-4.02 0.0198-6.71-0.0493-1.83 0.173-2.34 0.084-3.27-0.0379-0.396-0.195-0.409-0.545-0.307-1.28 0.368-2.19-1.34-0.888-2.17 0.281-0.144 1.13-0.753 1.36-0.894 0.566-0.324 0.814-0.0913 1.6 0.0657 11.4-3.07 15.8 13.3 1.26 12 0 0-0.125 1.12 0.361 1.49 0.592 0.451 1.08 0.444 0.846 1.56-0.171 0.827-2.26 0.641-2.26 0.641m1.26-12.8c0.0464 0.976 0.0511 5.36 0.0667 6.15 8.36 0.338 6.68-6.66-0.0667-6.15" enable-background="new" filter="url(#a)" stroke-width=".177"/>
  <path d="m153 8.45c-8.64-0.513-8.8 13-0.148 12.7 2.15 1.31 3.53-0.503 4.24-1.79-0.844-0.891-1.4-10.6-0.284-11.2 0.516-0.215 0.622-0.398 0.484-0.842-0.248-0.796-1.7-2.25-2.59-2.35-1.9 0.228-1.68 2.29-1.7 3.5m0.182 3.63c-0.0254 2.25 0.109 4.36 0.178 6.62-5.52 0.925-5.08-7.81-0.178-6.62" enable-background="new" filter="url(#a)" stroke-width=".171"/>
 </g>
 <path d="m27.5 24.8c1.07-1.52 0.975 1.42 0 0m-4.7 0.148c2.39-2.2 4.56 1.95 0 0m1.45-23.4c-2.11 0.144-5.1-0.639-3.05-0.755 5.77-0.265 25-0.358 29.6-0.241 1.93-0.269 2.4 1.31 2.48 2.18-0.0297 5.82-2e-3 18.5-0.181 22.7-0.785 0.508-3.11 0.431-4.46 0.132-1.56-0.291-0.311-1.18 0.917-1.09 0.83 0.0605 2.4 0.223 2.39-0.609-0.0152-0.865 0.912-21.4-0.545-22.4m-50.8 2.89c0.0692 1.03 0.665 0.265 0.691-0.0908 0.0548-0.764 0.0641-1.62 0.359-2.7 0.578-0.479 1.14-0.276 2.2-0.327 0.51 0.0312 0.512-1.17-0.693-1.09-0.516 7e-3 -1.01-0.0598-1.5-2e-4 -0.689 0.23-1.09 0.462-1.06 1.09m-0.393 11.6c0.121 3.51-0.337 9.31 0.968 11.1 1.97 2.16 6.64 1.6 13 1.45 5.24 0.164 6.13-1.41-0.199-1.16-2.79 0.0288-12.1 1.17-12.5-2.12-0.304-2.47-9e-3 -5.21-0.177-8.78-0.084-3.77-0.905-4.89-1.09-0.46v-5e-5m18.4-12.6c-0.107 0.0116-0.254 0.145-0.447 0.481 0.621 1.74 0.911-0.528 0.447-0.481" stroke-width=".0315"/>
</svg>
