<?xml version="1.0" encoding="UTF-8"?>
<svg width="221mm" height="25.2mm" version="1.1" viewBox="0 0 221 25.2" xmlns="http://www.w3.org/2000/svg">
 <defs>
  <filter id="b" color-interpolation-filters="sRGB">
   <feBlend in2="BackgroundImage" mode="luminosity"/>
  </filter>
  <filter id="a" color-interpolation-filters="sRGB">
   <feBlend in2="BackgroundImage" mode="luminosity"/>
  </filter>
  <filter id="c" color-interpolation-filters="sRGB">
   <feBlend in2="BackgroundImage" mode="luminosity"/>
  </filter>
 </defs>
 <g transform="translate(-.396 -272)" stroke="#fff" stroke-opacity=".408">
  <path d="m35.1 290c0.407-0.914-0.0729-1.66-0.0697-3.39l-0.0463-3.22s-0.469 0.0158-0.661-0.0965c-0.308-0.179-0.561-0.611-0.655-0.844-0.147-0.366 0.147-0.989 0.747-1.54 0.89-0.818 2.1-0.765 3.07-0.224l0.701 0.392 1.05-0.409c1.59-0.559 2.48-0.601 3.81-0.197 1.3 0.368 1.41 1.81 1.05 2.38-0.436 0.639-1.12 0.94-2.1 0.542-1.71-1.09-2.99-0.664-3.86-0.0191-0.0113 0.478-0.0456 1.07-0.0947 2.16 0.12 1.7 0.0752 3.35 0.101 4.23 0.0113 0.412 1.07 0.674 1.28 0.693 0.963 0.148 0.89 1.68-0.0422 1.71-1.61 0.0171-3.22 0.104-4.82 0.0487-1.15-0.0712-1.22-1.82-0.0865-1.99 0.264-0.0402 0.573-0.103 0.629-0.229" enable-background="new" filter="url(#b)" stroke-width=".167"/>
  <path d="m51.7 280c-2-0.0254-4.01 0.739-5.12 2.1-1.65 1.8-1.74 4.19-1.16 6.3 0.408 1.6 1.63 3.16 3.57 3.79 1.8 0.598 3.8 0.664 5.71 0.499 0.706-0.0587 1.37-0.527 1.28-1.14-2e-3 -0.739-0.575-1.64-1.63-1.61-1 0.142-2.03 0.244-3.03 0.0368-1.07-0.16-2.21-0.69-2.46-1.6 2.33 0.0294 4.68 0.0737 7-0.124 1.16-0.259 1.64-1.29 1.59-2.18-0.0522-1.79-0.762-3.64-2.32-4.96-0.889-0.747-2.16-1.12-3.44-1.12v-2e-5m-0.364 2.6c0.968-0.0733 1.53 0.638 1.96 1.21 0.335 0.465 0.925 1.49 0.362 1.79-1.64 0.231-3.32 0.168-4.98 0.147-0.0142-1.07 0.301-2.29 1.47-2.93 0.349-0.179 0.773-0.216 1.18-0.219" enable-background="new" filter="url(#b)" stroke-width=".19"/>
  <path d="m26.1 280c-0.48-0.0278-0.441 0.11-0.96 0.124-2.8 0.0769-4.18 0.714-3.82 1.77 0.277 0.809 1.52 0.728 3.39 0.44 1.94-0.299 2.54-0.192 3.01 0.23 0.22 0.311-4e-3 1.05 0.113 1.6 0.0845 0.399-1.49 0.168-2.1 0.14-3.52-0.165-5.32 0.732-5.42 2.84-0.0925 1.89 0.311 3.88 2.47 4.6 1.29 0.388 2.19 0.508 3.83 0.309 0.79-0.0953 1.74-0.162 2.08-0.0432 0.724 0.253 1.68 0.398 2.37-0.1 1.26-1.06 0.868-1.46 0.364-1.87-0.432-0.287-0.0429-1.07-0.0533-2.32-0.0185-2.24 0.0185-5.73-0.598-6.28-0.681-0.984-2.59-1.32-4.67-1.44l1e-5 -1e-4m0.878 6.09c0.288 0.0171 0.538 0.0523 0.716 0.104 0.507 0.147 0.135 1.99 0.199 2.57 0.203 1.12-0.45 1.12-1.46 1.28-3.12 0.492-2.56-1.38-2.5-2.52 0.029-0.563 0.16-0.92 0.794-1.18 0.863-0.223 1.41-0.297 2.25-0.252" enable-background="new" filter="url(#b)" stroke-width=".181"/>
  <path d="m14.1 274c-3.06-0.258-5.98 1.63-7.13 4.19-1.85 3.7-1.4 8.42 1.4 11.6 1.55 1.78 4.04 2.61 6.48 2.56 1.68 0.134 4.47-0.449 3.7-2.53-0.188-1.04-1.31-2.44-2.49-1.57-1.67 0.634-3.92 0.881-5.22-0.526-2.45-2.58-2.77-6.78-0.461-9.53 1.06-1.35 3.27-1.85 4.85-1.06 1.34 0.555 0.926 3.88 2.81 2.74 1.12-0.923 2.17-2.57 1.17-3.89-1.17-1.41-3.27-1.91-5.11-2.02" enable-background="new" filter="url(#b)" stroke-width=".193"/>
 </g>
 <g transform="translate(-.396 -272)" stroke="#fff">
  <path d="m83.7 281c-0.994-0.507-2.57-0.964-3.15-0.28-0.757 1.03 0.451 1.59 0.461 1.7l0.0891 0.902 0.054 3.21c4e-3 1.73 0.21 3.96 0.0633 4.15-0.822 5.2e-4 -1.09 1.99-0.0221 2.06 1.49 0.0523 2.52 0.062 4.01 0.0418 0.865-0.0389 1.58-1.5 0.383-1.96-0.187-0.0185-0.788-0.0248-0.8-0.436-0.0272-0.883-0.113-2.34-0.234-5-0.075-1.09 0.0772-1.27 0.0869-1.74 1.12-0.561 1.84-0.83 2.84-0.703 0.648 0.174 1.34 0.213 1.74 0.875 0.921 1.53 0.53 3.17 0.64 4.28-0.0362 0.521 0.364 2.35-0.031 2.75-0.225 0.223-1.01-0.0319-1.23 0.194-0.354 0.362-0.423 1.16 0.0464 1.54 0.607 0.485 1.67 0.2 2.66 0.186 0.793-0.0113 2.32 0.236 2.85-0.224 0.413-0.355 0.356-0.991 0.0464-1.44-0.191-0.278-1.17-0.0532-1.16-0.259 0.0364-1.31 0.193-4.18-0.106-6.19-0.232-1.46-0.568-3.38-2.71-4.01-0.374-0.121-2.66-0.493-3.31-0.414-1.58 0.183-2.19 0.519-3.22 0.788h2e-5" enable-background="new" filter="url(#a)" stroke-width=".0686"/>
  <path d="m144 292s0.375 0.818 0.516 1.01c1.67 0.194 1.85 0.0243 2.32-0.577 0.759-0.978-0.324-1.57-0.327-1.68 0.392-2.74-0.264-5.72 0.189-8.04 1.35-0.123 1.22-1.97 0.245-2.08-1.37-0.104-2.13 0.0741-3.51 0.0412-0.801 7e-3 -1.54 1.42-0.469 1.91 0.172 0.0249 0.549 0.0454 0.537 0.449-0.0665 2.55 0.0972 4.25-0.0813 6.48-4.76 2.15-5.39-4.26-4.29-6.84 0.221-0.211 0.786-7e-3 1-0.221 0.348-0.342 0.459-1.12 0.0473-1.51-1.17-0.312-4.23-0.447-5.1-0.158-0.402 0.333-0.387 0.958-0.127 1.41 0.16 0.279 1.08 0.0935 1.06 0.295-0.11 1.28-0.0188 3.78 0.14 5.76 0.129 1.44 0.0892 3 1.65 3.93 1.41 0.688 2.74 0.469 3.32 0.599 1.34 0.0134 2.04-0.403 2.89-0.788h1.5e-4" enable-background="new" filter="url(#a)" stroke-width=".0687"/>
  <path d="m198 280c-0.472-0.54-2.43-0.397-2.87 0.217-0.726 0.999 0.433 1.55 0.442 1.65 0 0 0.0855 0.879 0.0855 0.879l0.0518 3.13c4e-3 1.69 0.202 3.86 0.0609 4.04-0.789 5e-4 -1.04 1.94-0.0212 2 1.43 0.0509 2.42 0.0603 3.85 0.0407 0.83-0.0379 1.51-1.46 0.368-1.91-0.18-0.0182-0.93 0.0378-0.942-0.363-0.0258-0.859 0.188-2.39 0.0724-4.98-0.072-1.06-0.0484-1.18-0.0395-1.64 1.08-0.546 1.77-0.809 2.72-0.685 0.622 0.169 0.983 0.207 1.36 0.852 0.884 1.49 0.678 3.17 0.63 4.22-0.0347 0.507 0.272 2.24-0.107 2.62-0.216 0.218-0.603-0.031-0.815 0.189-0.34 0.353-0.406 1.13 0.0445 1.5 0.583 0.473 1.61 0.195 2.56 0.181 0.762-0.011 2.22 0.23 2.74-0.218 0.396-0.345 0.341-0.965 0.0445-1.4-0.183-0.271-1.32-0.0202-1.32-0.22 0.0347-1.27-0.0903-4.07-0.127-6.06-0.238-1.4-0.212-3.05-2.19-3.78-0.359-0.118-1.86-0.657-3.36-0.524-1.08 0.0961-2.4 1.21-3.24 0.278" enable-background="new" filter="url(#a)" stroke-width=".07"/>
  <path d="m76.3 276c-1.03-0.0736-1.66-0.0555-2.57-0.0351-0.53 0.0118-1.34-0.0299-1.98 0.0229-1.01 0.334-1.19 1.21-0.922 1.68 0.471 0.976 1.8 0.191 1.57 1.59-0.0465 1.3 0.0871 2.52 0.135 3.77-8e-3 1.88-0.0852 3.52-0.0964 5.4-0.0431 0.507 0.0955 1.29-0.78 1.44-0.804 0.375-0.828 1.67 0.194 2.05 1.24 0.25 2.79 0.111 4.06 0.129 0.729-0.0465 1.05-0.0526 1.56-0.582 0.427-0.902-0.239-1.76-1.17-1.88-0.543-0.348-0.306-1.76-0.408-2.42-0.169-1.89 0.0965-3.24-0.114-5.12-0.046-0.966 0.0371-2.24 0.0124-3.11-0.1-0.762 1.39-0.599 1.59-1.44 0.162-0.578-0.33-1.43-1.09-1.48l1e-5 -1e-5" enable-background="new" filter="url(#a)" stroke-width=".0713"/>
  <path d="m99.7 292c-1.76-0.619-3.68-1.18-3.7-1.83-0.0129-0.7 1.04-1.35 2.22-1.36 0.486-6e-3 1.1 0.562 1.58 0.767 1.09 0.467 2.56 0.587 3.03-0.0667 0.524-0.738 0.35-1.6-1.7-1.92-4.1-0.634-5.75-1.46-5.77-3.62-0.0358-2.66 1.69-4.33 5.67-4.38 2.37-0.0288 4.02 0.428 4.9 1.36 1.34 1.41 1 3.01-0.793 3.03-0.841 0.0527-1 0.142-1.28-0.737-0.151-0.524-0.553-0.935-0.886-1.2-0.594-0.262-1.11-0.376-1.79-0.369-1.62 0.0159-2.45 0.708-2.43 1.69 0.0156 0.873 0.431 1.78 2.76 2.18 3.74 0.64 5.09 1.16 5.31 3.38-0.136 1.25-0.912 2.46-2.54 3.02-1.36 0.337-3.19 0.46-4.58 0.0622" enable-background="new" filter="url(#a)" stroke-width=".0687"/>
  <path d="m113 293c-0.921-0.876-0.676-2.48-0.752-6.44-0.0633-3.3 0.227-3.29-0.177-3.23-0.828 0.127-1.14 0.0451-1.77-0.0356-1.95-0.25-1.82-1.86-0.404-2.65 0.671-0.0733 2.23 0.0921 2.58-0.017-2e-3 -0.651-0.0235-0.529-0.0723-0.971-0.274-0.151-1.1 0.28-1.22-0.256-0.506-1.41 0.708-1.64 1.28-2.07 1.23-0.917 3.08-0.825 3.18 0.472 0.15 1.32 0.0536 1.79 0.174 2.74 1.21 0.0712 3.69-0.27 3.7 1.33 4e-3 1.67-2.79 1.27-3.63 1.44-0.504 0.0926-0.552 1.79-0.574 2.96 9.5e-4 2.24 0.122 3.75 0.599 4.18 0.852 0.755 3.77 0.685-0.304 2.4-0.908 0.647-1.67 0.561-2.6 0.154" enable-background="new" filter="url(#a)" stroke-width=".0698"/>
  <path d="m123 291c0.177-0.193 0.0955-2.08 0.0924-3.87l-0.0639-3.32 0.032-0.634c0.0147-0.362-0.992 0.0568-1.1-0.183-0.144-0.329-0.456-0.795 0.0486-1.3 0.0738-0.0745 0.639-0.643 0.724-0.716 0.99-0.846 1.39-0.664 2.48-0.108l0.784 0.402 1.17-0.425c1.78-0.58 3.36-0.477 4.84-0.0645 1.46 0.376 1.93 1.69 1.18 2.45-0.782 0.646-1.73 0.796-2.66 0.182-1.92-1.12-3-0.324-3.96 0.343-0.012 0.493-0.0368 1.56 0.053 2.68 0.14 1.75 0.0618 3.04 0.0943 3.95 0.0153 0.425 1.06 0.693 1.28 0.712 1.08 0.15 0.999 1.73-0.0408 1.77-1.8 0.0205-3.2-9e-3 -4.99-0.0637-1.28-0.0705-0.96-1.8 0.0284-1.8l8e-5 1.6e-4" enable-background="new" filter="url(#a)" stroke-width=".0705"/>
  <path d="m166 293c-0.925-0.843-0.679-2.39-0.755-6.2-0.0636-3.18 0.228-3.16-0.178-3.1-0.832 0.122-0.664 0.163-1.3 0.0857-1.96-0.24-1.97-2.37-0.406-2.55 0.674-0.0705 1.24-0.257 1.6-0.287 0.189-0.0363 0.332 0.237 0.243-0.818-0.143-0.315-0.251-0.0222-0.883-0.559-1.02-0.871 0.986-1.7 1.28-1.99 0.738-0.714 2.8-0.566 2.78 0.577 0.151 1.27-0.1 2.07 0.0203 2.98 1.22 0.0686 4.12-0.382 4.13 1.15 4e-3 1.61-2.87 1.28-3.72 1.44-0.507 0.0891-0.554 1.72-0.576 2.85 9.6e-4 2.15 0.122 3.61 0.601 4.02 0.716 0.121 2.06 1.15-0.305 2.31-1.33 0.538-1.57 0.473-2.54 0.0872l-1.7e-4 -3e-5" enable-background="new" filter="url(#a)" stroke-width=".0683"/>
  <path d="m187 280c-1.72-0.031-3.39 0.703-4.43 1.89-2.59 2.77-2.18 7.37 1.02 9.65 1.42 0.997 3.43 1.46 5.17 0.835 2.4-0.699 3.96-2.79 4.27-4.93 0.442-2.6-0.796-5.49-3.41-6.88-0.788-0.397-1.7-0.589-2.61-0.572m-0.0643 2.81c1.36 0.135 2.46 1.15 2.76 2.3 0.441 1.37 0.446 3.07-0.769 4.15-0.629 0.609-1.66 0.941-2.55 0.579-0.845-0.271-1.57-0.828-1.84-1.6-0.591-1.47-0.642-3.25 0.394-4.58 0.453-0.574 1.23-0.868 2.02-0.85" enable-background="new" filter="url(#a)" stroke-width=".0683"/>
  <path d="m178 280c-0.313 5e-3 -0.64 0.141-1.02 0.33-0.382 0.189-0.8 0.439-1.2 0.706-0.397 0.267-1.03 0.551-1.32 0.805-0.293 0.254-0.507 0.442-0.592 0.681-0.16 0.404-0.0965 0.637 0.192 0.943 0.25 0.0787 0.475 0.147 0.482 0.353 0.0237 0.648-0.0211 2.14-0.0128 2.63 0.0219 1.2 0.0214 2.36-0.0105 3.22-0.0109 0.438 0.0876 0.78 0.116 1.19-0.358 0.159-0.752 0.526-0.718 0.954 0.0357 0.395 0.245 0.59 0.559 0.776 1.15 0.193 3.04 0.479 4.11 0.0906 1.34-0.527 0.525-2.05-0.396-2.11-0.422-0.325-0.562-1.02-0.568-1.93-7e-3 -0.905 0.106-1.99 0.0546-3.03-0.0174-0.374-0.056-0.92-0.0624-1.43-6e-3 -0.511 0.0394-1.01 0.112-1.17 0.212-0.359 0.549-0.58 0.838-0.835 0.33-0.558 0.137-1.4-0.0726-1.91-0.0944-0.141-0.282-0.269-0.496-0.266 0 0 2.8e-4 -5e-4 2.8e-4 -5e-4m-0.98-5.33c-0.632-0.102-1.64 0.0473-2.08 0.449-0.857 0.584-0.629 1.01-0.57 1.9 0.123 0.284 0.293 0.655 0.563 0.836 0.411 0.276 1.71 0.536 2.16 0.326 0.761-0.23 1-0.626 1.29-1.42 0.0778-1.32-1.03-2.04-1.36-2.09" enable-background="new" filter="url(#a)" stroke-width=".0691"/>
  <path d="m155 280c-2.32-0.154-4.65 0.852-5.75 2.39-1.87 2.43-1.74 5.64 0.237 8 1.08 1.3 2.96 2.19 4.99 2.33 1.35 0.101 2.85 0.107 4.04-0.452 0.504-0.224 0.524-0.9 0.436-1.11-0.19-0.57-0.389-1.62-1.48-1.42-1.53 0.308-3.39 0.364-4.6-0.539-1.14-0.89-1.6-2.19-1.6-3.4 0.168-1.09 0.636-2.3 1.91-2.93 0.953-0.368 2.36-0.424 3.06 0.294 0.652 0.332 0.247 0.983 0.702 1.39 0.59 0.572 1.83 0.318 2.27-0.253 0.889-0.71 1.51-1.86 0.697-2.75-0.997-1.03-2.77-1.35-4.36-1.51-0.182-0.0149-0.365-0.0258-0.547-0.0337v5e-5m1.77 4.33c-0.0172-0.0904-0.0456-0.111 0 0" enable-background="new" filter="url(#a)" stroke-width=".0694"/>
  <path d="m213 292c-1.9-0.305-3.33-1.02-3.35-1.68-0.0126-0.703 0.599-1.17 1.74-1.18 0.472-6e-3 1.67 0.539 2.13 0.745 1.06 0.469 2.49 0.59 2.94-0.0669 0.51-0.742 0.154-1.77-1.84-2.09-3.99-0.637-5.59-1.47-5.62-3.64-0.035-2.67 1.64-4.35 5.52-4.4 2.3-0.0288 3.9 0.431 4.76 1.37 1.3 1.41 0.977 3.02-0.771 3.04-0.817 0.053-0.972 0.142-1.25-0.741-0.147-0.527-0.537-0.939-0.861-1.21-0.578-0.263-1.08-0.378-1.74-0.371-1.57 0.0159-2.39 0.711-2.37 1.7 0.0172 0.877 0.419 1.79 2.69 2.19 3.64 0.643 5.39 1.27 5.16 3.4-0.132 1.26-0.825 1.99-2.41 2.55-1.26 0.447-3.32 0.611-4.76 0.38v5e-5" enable-background="new" filter="url(#c)" stroke-width=".0685"/>
 </g>
 <g transform="translate(-.396 -272)">
  <path d="m46.7 272c-3.36 0.0988-18.6-0.0797-20.4 0.102-2.36-0.742-1.44 0.0181-2.02 0.0434-3.43 1.01 6.77 0.112 12.8 0.532 9.51-0.122 19.8-0.278 15.9-0.444-1.98-0.337-3.74-0.227-6.32-0.233m-43.9-0.427c-0.609 0.0341-2.29 0.123-2.19 0.816 0.0181 0.128-0.0777 1.93 0.058 2.23 0.257 0.565 0.933-0.0357 0.907-1.27-3e-3 -1.4 3.2-0.65 3.49-0.922 0.0697-0.125 0.45-0.696-0.0648-0.8-0.6-0.122-1.96-0.0651-2.2-0.0514l-6e-5 4e-5m-1.67 4.96c-0.101-0.0141-0.236 0.0911-0.396 0.425 0.678 0.736 0.697-0.382 0.396-0.425m62.4 8.41c-0.243 2.45 0.124 8.21-0.34 10.5 0.0204 1.19-43.9 0.0488-46 0.214-0.73 0.0766-1.02 0.0508-1.09 0.861 3.09-0.464 47 0.678 47.8-0.0874 0.534-1.71 0.294-9.7 0.287-11.5-0.0344-0.736-0.611-0.463-0.708-0.0315v2e-5m-62.9-0.832c-0.0493-5e-3 -0.0935 0.0409-0.128 0.163-0.345 1.24 0.122 10.4 1.13 11.5 0.916 1.02 4.4 1.04 5.39 0.59-0.605-0.617-1.21-0.786-1.71-0.727-0.168 0.02-2.18-0.243-2.89-1.28-1.9-2.76-1.06-9.52-1.17-9.37-0.0818 0.108-0.398-0.875-0.611-0.897m17.2-12c-0.0183-1e-3 -0.0366 2e-5 -0.0545 4e-3 -0.0735 0.0169-0.14 0.0792-0.193 0.204-0.0267 0.0634-0.0495 0.142-0.0673 0.241 1.04 0.881 0.977 0.257 0.685-0.158-0.108-0.154-0.242-0.283-0.37-0.29l-2e-5 1.3e-4m-9.82 22.9 0.133 0.197-0.133-0.197m55.1-16.4c0.068 8e-3 0.15 0.0443 0.248 0.121 1.67 0.145-0.233 0.318-0.499 0.334-0.072 5e-3 -0.0436-0.49 0.251-0.455m-4.09-7.04c-0.262 0.0114-0.726 0.2-1.45 0.715 1.22 0.82 2.24-0.748 1.45-0.715m-46.4 24c-1-0.0151-2.29 0.316-2.5 0.597 1.69 1.2 4.24-0.072 3.68-0.111-0.0891-0.344-0.583-0.477-1.18-0.486m-3.66 0.166c-0.0837-8e-3 -0.201 0.0301-0.358 0.144 0.45 0.779 0.721-0.11 0.358-0.144m53.9-23.9c-0.462 5e-3 -1.04 0.23-2.08 0.393 3.1 2.82 3.59 0.177 2.86-0.101-0.271-0.217-0.507-0.294-0.784-0.291" stroke="#fff" stroke-opacity=".408" stroke-width=".0113"/>
 </g>
</svg>
