<?xml version="1.0" encoding="UTF-8"?>
<svg width="284mm" height="67.1mm" version="1.1" viewBox="0 0 284 67.1" xmlns="http://www.w3.org/2000/svg">
 <defs>
  <filter id="b" color-interpolation-filters="sRGB">
   <feBlend in2="BackgroundImage" mode="luminosity"/>
  </filter>
  <filter id="a" color-interpolation-filters="sRGB">
   <feBlend in2="BackgroundImage" mode="luminosity"/>
  </filter>
  <filter id="c" color-interpolation-filters="sRGB">
   <feBlend in2="BackgroundImage" mode="luminosity"/>
  </filter>
  <filter id="d" color-interpolation-filters="sRGB">
   <feBlend in2="BackgroundImage" mode="luminosity"/>
  </filter>
 </defs>
 <g transform="translate(23.2 -236)">
  <path d="m8.9 241c-4.5 5e-3 -8.6 0.331-8.39 4.88 0.435 9.29 2.89 31.6 4.06 40.9 0.2 1.54 0.801 3.3 2.4 3.41 5.83 0.42 18.9 0.404 21.3 0.422 2.56 1e-3 4.54 0.0833 5.59 0.0556 2.3-0.061 2.3-3.7 0.0955-4.14-0.234-1.67-1.22-5-0.0688-5.11 0.963 0.0152 2.5 4.49 3.62 4.72 1.86 0.391 3.48-5.07 4.08-5.08 1.31-0.707-0.0503 6.71-0.126 7.13-0.457 1.08-0.31 1.87 0.183 2.31 0.657 0.591 2.78 0.557 3.34 0.557 2.91-0.109 3.99-1.67 5.7-3.5 0.262 2.87 5.86 4.12 8.44 2.74 0.705-0.652 1.31 0.41 2.8-0.138 3.08-1.12 5.82-4.91 6.93-6.9 1.15 1.55 1.17 2.63-0.791 2.66-2.66 0.112-3.35 4.98-0.525 5.07 3.4-0.061 7.83-1.12 10-3.66-0.018 0.976-0.328 3.96 0.289 3.27 0.566 0.663 3.62 0.762 4.02-0.316 0.78-1.32-0.236-3.26 0.512-5.26 1.3-3.48 2.34-2.33 2.43-1.91 0.219 4.62-0.387 8.08 4.9 8.49 4.8-0.0488 5.76-3.01 5.65-5.93 0.122-1.97-0.328-2.86 0.587-3.01 2.69-0.268 1.48 2.19 2.87 3.85 0.961 1.14 2.84 0.471 3.88-0.551-0.136 2.43 1.55 5.68 5.49 5.54 6.43 0.318 7.16-5.42 6.27-7.47 0.945 0.383 1.3 0.373 1.89 0.286-0.591 1.39-0.911 7.27 5.83 7.26 7.64-0.212 7.13-6.51 6.18-8.62 0.647 0.193 1.8 0.134 2.72-0.133-0.0523 2.89-0.11 4.33 0.0187 7.13 0.106 2.71 4.54 2.43 4.56-0.11-0.036-2.1 0.17-4.08-0.134-5.7 0-0.701 0.852-0.662 1.93-1.21 0.789-0.312 0.548 2.66 1.06 3.75 1.34 2.19 3.9 1.1 3.72-0.316-0.168-1.31 0.0999-4.56 1.79-3.98 2.45 2.76-1.07 8.82 5.94 9.41 4.98 0.328 6.18 0.698 12 0.526 2.75-0.0811 3.48-0.821 4.1-1.13 4.16 1.18 9.72 2.25 12.1-1.74 0.812 2.19 3.37 3.04 5.44 2.95 4.8-0.199 7.29-5.36 6.21-8.82 0.606 0.0427 0.216 0.165 1.11-0.03-0.63 4.46 3.13 5.4 6.52 3.8-0.0189 0.256-0.0466 0.417-0.0699 0.598-0.652 0.268-4.59 1.3-5.86 2.29-2.44 1.89-1.26 6.66 3.45 6.39 5.15-0.298 6.69-5.11 6.63-6.95 2.76-1.61 5.05-4.6 6.56-6.76 0.605 0.328 1.25 0.648 1.95 1.18 0.917 1.21-1.35 2.27-3.78 2.73-4.09 0.774-1.26 5.97 2.49 4.64 1.66-0.642 1.83-0.658 3.49-1.79 8.43-0.84 14.2 0.174 20-0.788 1.88-0.312 3.47-1.79 3.7-4.44-0.215-13.2 0.72-26.6 1.28-35.7-0.193-4.68-5.05-6.12-6.95-5.98-78-0.602-150-2.92-221-1.82m-1.3 3.35c64.9-1.34 149 0.127 224 2.19 2.2 0.0215 2.49 2.39 2.68 4.3-0.184 1.1-1.03 18.6-1.54 32-0.445 2.19-0.612 2.82-4.05 2.73-2.79 0.0513-10.2 0.0553-13.9-8.5e-4 1.46-2.25-1.06-4.04-3.85-5.4 0.542-0.534 1.04-1.86 0.433-2.8-2.21-3.69-8.27-0.701-7.16 2.53 0.625 1.45 0.719 1.17 1.24 1.74-0.691 1.42-2.96 3.08-3.87 3.88 0.341-2.21-1.27-3.3-0.131-3.64 2.23-0.919 0.393-4.85-2.12-3.54-2.81 0.0669-5.93-0.411-7.72 1.62-0.652 0.862-0.942 1.24-2.65 0.638-0.877-0.31-1.61-0.629-2.8-0.995-2.95-0.912-7.46 0.527-8.83 5.06-0.706 2.75-3.14 3.29-5.02 3.29-1.66 0.0248-3.29-0.276-4.82-0.654-0.0961-2.81-1.07-6.27 0.216-8.49 1.95-3.05-2.12-4.52-4.34-2.41-1.38 1.29-0.774 2.86 0.0688 3.88-0.464 3.39 0.482 6.9-0.239 8.63-0.694 1.07-11.3 1.05-13-0.562-2.72-2.24 0.888-5.92-2.14-8.78-4.5-4.25-7.47 1.89-8.14-0.29-1.18-2.21-3.88 0.714-4.39 0.825-0.398-1.89-3.1-1.98-4.25-0.886-1.5 1.45-3.08-0.159-5.76-1.18-1.52-0.582-5.89 0.352-7.78 1.8-1.88 1.29-3.17 0.945-4.49-0.31-1.35-1.43-3.22-1.9-4.77-1.83-2.57 0.0182-3.73 1.36-5.11 2.94-1.31 1.5-2.2 2.84-2.55 2.7-0.95-1.11 0.249-0.399 0.362-1.7 0.202-1.79-0.688-2.98-1.98-3.14-1.39-0.173-3.2 0.762-3.17 0.623-0.601-1.55-3.25-1.49-4.21-0.657-0.695 0.616-1.24 1.8-0.927 2.9 0.371 1.72 1.33 7.73-0.887 7.59-1.97-0.0893 0.613-7.19-1.81-9.89-2.03-1.93-5.97-0.864-6.75 1.49-1.08 2.67 0.487-2.51 0.144-4.1-0.301-3.04-6.8-2.79-6.19 0.403 0.471 2.5 2.71 4.74 1.07 7.12-0.54 0.778-2.08 1.09-2.41 0.695 0.131-0.993-0.603-1.87-2.62-2.98-0.637-0.804-0.0453-1.42 0.365-1.96 2.96-5.37-7.01-6.23-6.91-1.32 0.135 0.875 0.957 2.13 1.59 2.7-0.686 1.49-1.65 3.27-4.67 5.28-0.514 0.428 0.332-4.4 0.256-6.02 0.0938-2.72-4.39-2.84-4.41-0.171-0.0159 4.33 0.268 6.59-1.36 6.56-2.5-0.198-1.51-2.74-1.88-6.74-0.369-2.82-5.37-2.36-4.76 0.296 0.293 2 0.262 3-0.681 4.77-0.499 0.938-1.35 2.21-2.53 2.71-0.938 0.109-0.447-6.74-0.62-9.98 0.0817-3.37-4.83-3.05-5.54-1.08-0.845 2.11-2.49 4.05-2.94 4.09-2.38-2.43-2.28-2.41-4.02-5.14-2.05-2.55-7.01 0.144-5.08 3.08 1.47 0.967 1.04 0.718 1.23 1.72 0.335 1.76-5e-3 6.52-0.488 6.91-3.59-0.136-14.8 0.22-19.5-0.0896-1.74-0.0546-1.68-1.23-1.93-3.2-0.989-7.78-3.74-29.8-3.46-38.1 0.0504-1.17 1.71-1.6 3.51-1.64m189 37.5c0.181 1e-3 0.376 8e-3 0.586 0.0139 0.32 1.6-0.0329 2.38-1.19 2.53-1.35 0.477-1.29-0.736-1.1-1.12 0.61-1.26 0.436-1.44 1.7-1.43v1e-5m-88.4 0.5c2.89-0.153 2.71 5.06-0.0758 5.09-2.22 0.018-1.74-4.99 0.0758-5.09m14.3 0.89c2.95 0.0821 3.54 3.97-0.47 4.08-3.4 0.0918-2.16-3.95 0.178-4.08 0.0999-6e-3 0.197-6e-3 0.292-4e-3v1e-5m61.1 0.713c3.17 0.0535 2.76 4.42-0.478 4.36-2.52 0.0316-2.8-3.91-0.205-4.31 0.244-0.0373 0.471-0.0531 0.683-0.0495m13.7 7.28c-0.349 1.33-2.04 1.61-2.7 1.57-1.18-0.0908 1.8-1.2 2.7-1.57" enable-background="new" filter="url(#d)" stroke="#fff" stroke-opacity=".404" stroke-width=".446"/>
 </g>
 <g transform="translate(23.2 -236)">
  <g transform="translate(-30.5 196)" enable-background="new" filter="url(#c)" stroke="#fff" stroke-opacity=".399" stroke-width=".446">
   <path d="m149 55.8c-2.1-0.0683-4.61 1.69-4.87 4.12-0.5 3.39 0.832 6.4 3.91 7.27 1.38 0.666 2.47 2.08 1.34 3.24-0.676 0.593-1.49 0.0688-1.74-0.764-0.764-1.42-2.78-0.862-3.01 0.744-0.347 1.89 0.943 3.04 2.31 3.39 6.78 1.7 9.05-5.83 4.32-8.62-1.22-0.832-2.5-0.638-2.94-2.49-1.12-4.12 2.42-3.23 2.41-1.82 2e-3 3.24 3.73 2.1 3.39-0.219-0.713-3.42-1.55-4.74-5.12-4.86"/>
   <path d="m157 72.4c-0.098 2.99 4.26 2.51 4.13-0.431-0.46-2.95-0.313-8.46-0.403-10.7 5.27-1.99 2.65 7.89 2.84 11.1 0.119 2.52 3.89 2.79 3.97 0.214 0.325-3.38 1.68-20.8-7.33-15.5-0.0908-1.25 0.272-2.77 0.238-3.71-0.08-2.22-3.69-2.44-3.54 0.685 0.0412 0.825 0.161 16.4 0.0862 18.3"/>
   <path d="m172 56.6c-0.766-0.349-1.89-0.13-1.98 1.02 0.15 4.55 0.0302 9.09 0.132 13.3-0.272 4.27 3.91 4.67 3.72-0.259 0.191-3.14-0.471-6.28-0.291-9.38 1.3-1.85 3.45 0.831 4.96-0.449 0.988-1.29 0.146-4.32-1.25-4.63-2.43-0.775-3.8 1.15-5.29 0.357"/>
   <path d="m185 56c-6.86 0.104-6.86 17.8-0.212 18.1 7.88 0.452 7.18-17.7 0.212-18.1m-0.318 4.97c3.99-0.0114 3.12 9.16 0.393 9.1-2.72-0.153-2.94-9.09-0.393-9.1"/>
   <path d="m197 56.1c-6.8 0.877-6.46 18.3-0.526 18.1 9.38-0.21 7.07-19 0.526-18.1m0.174 4.62c2.94 0.116 2.98 9.41-0.0755 9.05-3.79-0.451-2.08-9.14 0.0755-9.05"/>
   <path d="m212 56.9c-1.24-0.442-2.74-1.27-3.93-0.169-0.408 0.324-0.788 1.03-0.941 0.109-0.306-1.21-2.56-1-2.62 0.257 0.445 4.88 0.463 11 0.286 15.5-5e-3 2.52 3.49 2.97 3.32 0.0582 0.118-2.15-0.22-6.39-0.0998-9.34-0.234-2.61 1.85-3.63 2.37-0.717 0.254 3.26-0.32 7.74-0.0592 10.5 0.132 1.45 3.07 2.46 3.22-0.0625 0.249-3.66-0.374-7.84-0.318-11.5 0.453-1.13 2.48-1.27 2.5 0.0872 0.368 3.91 0.225 8.88 0.195 11-0.0395 2.81 3.42 2.84 3.31-0.045-0.087-2.38 0.464-13-1.01-15-1.99-2.68-4.57-0.128-6.23-0.688"/>
   <path d="m227 56.3c-8.3 0.0395-7.33 22.3 4.81 17.5 1.82-0.601 0.821-4.55-0.873-3.71-3.82 0.997-4.99 0.33-5.25-2.74 1.76-0.192 4.69 0.429 6.39-0.206 2.83-3.13-0.138-10.9-5.08-10.8m0.148 4.16c1.22 0.05 2.56 1.53 2.55 3.7-1.13 0.119-3.41 0.138-4.45-0.0072-0.146-2.67 0.828-3.74 1.9-3.7v-3.5e-5"/>
   <path d="m242 56.3c-0.976-0.0215-2.11 0.261-3.34 1.01-0.881-1.63-2.83-0.691-3.24 0.695 0.141 2.81 0.228 10.5 0.226 14.5-0.0127 2.78 4.05 2.76 3.85-0.232-0.011-3.9-0.147-7.59 0.0517-11.3 1.04-0.258 2.17-0.418 3.14-0.43 4.21-0.277 2.8-4.23-0.683-4.31h-3e-5"/>
   <path d="m250 56.5c-0.915-0.0107-1.96 0.71-1.74 1.93 1.15 3.12 2.29 6.05 2.83 9.97 0.196 1.43 0.578 2.83-0.0491 4.11-0.217 0.69-0.704 0.991-1.35 1-1.34 0.0276-1.8 0.901-1.78 1.8 0.0217 0.961 0.791 1.9 1.88 1.95 1.44 0.0745 3.4 0.0947 4.13-1.69 0.452-1.47 0.904-2.93 1.4-4.38 0.95-3.56 1.74-6.67 2.92-10.1 0.368-1.24 0.606-3.9-0.802-4.41-1.01-0.431-2.08 0.136-2.22 1.46-0.217 1.88-0.397 5.22-1.31 6.99-0.273-1.36-0.5-3-2.07-7.06-0.319-0.601-1.22-1.55-1.85-1.53"/>
  </g>
 </g>
 <g transform="translate(23.2 -236)">
  <path d="m114 249c-1.75-3.38-8.47-2-6.73 0.863-1.81 2.25-1.3 4.98 0.353 6.63 1.08 1.08 3.23-0.931 2.26-2.05-0.155-0.373-0.373-2.01 0.0375-2.12 0.174-0.734 1.79-1.16 0.777-0.61-0.19 0.103-0.459 1.06-0.0124 1.26 2.52 1.11 4.37-1.84 3.32-3.97" enable-background="new" filter="url(#a)" stroke="#fff" stroke-opacity=".404" stroke-width=".167"/>
 </g>
 <g transform="translate(23.2 -236)">
  <g transform="translate(-29.6 197)" enable-background="new" filter="url(#b)" stroke="#fff" stroke-opacity=".409" stroke-width=".167">
   <path d="m42.5 52.5c-3.35 0.439-2.19 4.59 0.616 4.45 0.641-0.0292 1.44-0.0126 2.08-0.0304 0.106 5.33 0.687 9.82 0.595 15.1-0.0457 2.65 4 2.96 4-0.0423-0.0158-5.47-0.311-9.66-0.695-15.4 1.51-0.167 2.1 5.81e-4 3.29-0.106 1.78 0.0809 1.7-4.15-0.207-4.16-4.16 0.0468-5.36-0.226-9.68 0.178" enable-background="new"/>
   <path d="m58.4 57c-1.5 0.0275-2.99 0.616-3.99 1.79-2.35 2.68 0.032 4.76 1.81 3.22 2.47-2.18 4.34-1.03 4.13 2.13-10.4 0.623-8.86 13.8 1.89 9.32 2.21 2.11 4.38-1.5 2.33-3.22-0.985-3.16-0.17-5.57-0.596-8.78-0.496-2.98-3.06-4.49-5.57-4.45m1.78 10.5c0.119 1.15 0.841 3.06 0.383 3.32-4.73 1.22-5.13-3.46-0.383-3.32" enable-background="new"/>
   <path d="m67.3 54.8c0.0903 1.96 0.427 15.5 0.307 17.3-0.201 2.98 3.56 2.92 3.62 0.0988 0.06-2.63-0.154-6.8-0.114-10.2 0.485-1 3.01-1.35 3.28-0.243 1.76 3.44 0.844 7.38 0.867 10.9 0.0175 2.65 3.81 2.77 3.78 0.163-0.0528-4.33 1.85-20.7-7.91-15.3-0.0464-0.933 0.108-2.39 0.0504-3.61 0.0248-1.58-3.95-2.35-3.89 0.8" enable-background="new"/>
   <path d="m87.4 56.4c-8.27 0.158-7.71 18.3 0.504 17.8 7.34 0.137 6.66-17.9-0.504-17.8m-0.254 4.15c3.21-0.135 3.59 9.69 0.43 9.81-4 0.147-3.99-9.66-0.43-9.81" enable-background="new"/>
   <path d="m97.1 56.1c-0.697 0.0036-1.48 0.313-1.46 1.07 0.231 5.38-0.0835 12.4 0.112 15.2-0.0228 2.22 3.27 2.08 3.32 0.305 0.0096-3.26 0.449-7.17 0.27-10.5 0.428-0.869 2.67-2.89 2.74 0.0884 0.0653 2.94 0.145 5.2 0.0537 8.14-0.147 4.75 3.36 4.6 3.55 1.86 0.149-2.22-0.145-4.65-0.168-7.57 0.0609-3.41 2.26-6.53 2.95-1.34 0.445 3.47-1.08 7.2 0.537 9.95 0.69 1.18 3.55 1.44 3.14-1.02-0.811-4.92 0.561-9.92-0.944-14.2-2.22-3.53-5.88-0.796-6.98-1.04-1.17-0.353-2.46-1.18-3.7-0.511-0.646 0.255-1.41 1.01-2.13 0.603-0.272-0.252-0.405-0.96-1.29-0.997l-5e-6 -4e-6" enable-background="new"/>
   <path d="m121 56.1c-1.25 0.0236-2.82 0.371-4.77 1.13-2.04 0.804-0.461 5.04 2.32 3.67 3.33-1.43 3.36-0.646 3.19 1.81-11.4 0.105-6.72 13.6 1.07 10.6 2.12 2.23 5.09-0.782 3.14-2.36-0.476-5.66 1.82-15-4.95-14.9m1.24 10.2c0.0645 0.897 8e-3 3.3 4e-3 3.69-3.79 0.0672-4.84-4.04-4e-3 -3.69" enable-background="new"/>
  </g>
 </g>
</svg>
