<?xml version="1.0" encoding="UTF-8" standalone="no"?>
<!-- Created with Inkscape (http://www.inkscape.org/) -->

<svg
   xmlns:dc="http://purl.org/dc/elements/1.1/"
   xmlns:cc="http://creativecommons.org/ns#"
   xmlns:rdf="http://www.w3.org/1999/02/22-rdf-syntax-ns#"
   xmlns:svg="http://www.w3.org/2000/svg"
   xmlns="http://www.w3.org/2000/svg"
   xmlns:sodipodi="http://sodipodi.sourceforge.net/DTD/sodipodi-0.dtd"
   xmlns:inkscape="http://www.inkscape.org/namespaces/inkscape"
   width="211.66667mm"
   height="53.162895mm"
   version="1.1"
   viewBox="0 0 211.66667 53.162895"
   id="svg60"
   sodipodi:docname="header.svg"
   inkscape:version="0.92.3 (2405546, 2018-03-11)">
  <sodipodi:namedview
     pagecolor="#ffffff"
     bordercolor="#666666"
     borderopacity="1"
     objecttolerance="10"
     gridtolerance="10"
     guidetolerance="10"
     inkscape:pageopacity="0"
     inkscape:pageshadow="2"
     inkscape:window-width="1920"
     inkscape:window-height="1017"
     id="namedview62"
     showgrid="false"
     inkscape:snap-global="false"
     inkscape:zoom="0.91785381"
     inkscape:cx="429.52201"
     inkscape:cy="176.22863"
     inkscape:window-x="-8"
     inkscape:window-y="-8"
     inkscape:window-maximized="1"
     inkscape:current-layer="svg60"
     fit-margin-top="0"
     fit-margin-left="0"
     fit-margin-right="0"
     fit-margin-bottom="0">
    <inkscape:grid
       type="xygrid"
       id="grid3773"
       originx="-9.2718401"
       originy="-3.5734295" />
  </sodipodi:namedview>
  <defs
     id="defs8">
    <filter
       id="filter982-92"
       style="color-interpolation-filters:sRGB">
      <feBlend
         in2="BackgroundImage"
         mode="luminosity"
         id="feBlend2" />
    </filter>
    <filter
       id="filter982-92-7"
       style="color-interpolation-filters:sRGB">
      <feBlend
         in2="BackgroundImage"
         mode="luminosity"
         id="feBlend5" />
    </filter>
  </defs>
  <metadata
     id="metadata10">
    <rdf:RDF>
      <cc:Work
         rdf:about="">
        <dc:format>image/svg+xml</dc:format>
        <dc:type
           rdf:resource="http://purl.org/dc/dcmitype/StillImage" />
        <dc:title></dc:title>
      </cc:Work>
    </rdf:RDF>
  </metadata>
  <g
     style="stroke-opacity:1;fill-opacity:1;stroke:#3e3e3e;stroke-dasharray:none;stroke-miterlimit:4;stroke-width:0.79374999;fill:#fdfdfd"
     id="g14">
    <path
       style="fill:#fdfdfd;fill-opacity:1;stroke:#3e3e3e;stroke-width:3;stroke-miterlimit:4;stroke-dasharray:none;stroke-opacity:1"
       d="m 338.79492,8.4863281 c -23.46907,0.2707956 -50.85849,1.4429386 -81.54883,1.5332029 -75.82316,0.216639 -157.06156,0.0038 -159.769528,0.02149 -29.787666,0.234707 -79.434295,-0.9945048 -83.044921,0.503906 -5.5062093,2.798237 -2.438344,19.858897 -2.257813,32.496094 0.902657,64.088614 1.355469,125.470784 1.355469,130.886714 0.333982,9.92924 8.212448,7.04086 16.246094,7.49219 8.214175,0.4423 24.370857,0.43238 30.689453,0.44141 12.637194,0.0227 36.109065,0.59691 37.011718,-1.08203 2.43718,-2.6177 2.886818,-6.8626 -0.308593,-9.93164 -1.715044,-1.89558 -3.070156,-4.6023 -3.521485,-6.94922 -1.715047,-9.92922 -0.134133,-16.24736 3.070313,-12.63672 0.776285,0.85751 3.159396,4.6038 5.416013,8.30469 2.16639,3.70089 4.51421,6.76953 5.23633,6.76953 1.89558,0 4.60269,-3.52052 8.12305,-10.83203 3.61063,-7.22126 4.60373,-8.03332 6.22851,-5.50586 1.35399,2.0761 0.99249,9.92952 -1.17382,21.66406 -0.69506,3.79115 -0.99298,7.58214 -0.74024,8.39453 0.66796,1.89558 3.15812,2.61719 9.02539,2.61719 6.76993,0.017 10.83406,-1.8971 16.25,-8.03516 3.7009,-3.97169 4.60352,-4.60093 4.60352,-3.0664 0,7.31152 12.63686,12.6357 23.46875,9.92773 2.8885,-0.83046 6.31831,-1.26298 7.58203,-0.99219 5.14514,1.26373 14.44248,-6.13797 22.5664,-17.15039 l 4.69336,-6.95117 1.625,2.16797 c 3.24957,4.42302 1.26512,8.75392 -4.06054,8.7539 -2.97878,0 -6.77149,5.05567 -6.77149,9.02735 0,5.32569 2.34737,6.769 9.92969,6.04687 8.48497,-0.86655 18.95546,-4.60364 23.46875,-8.75586 l 4.42188,-3.51953 v 5.14649 c 0,2.79824 0.47919,5.68649 1.08398,6.31836 0.58673,0.64088 3.06827,1.17382 5.5957,1.17382 2.43719,0 4.96579,-0.52392 5.59766,-1.17382 0.64089,-0.70408 1.08398,-4.15315 1.08398,-8.57618 0,-6.138 0.4136,-8.30397 2.43555,-12.63671 1.89558,-4.2425 2.88958,-5.32492 4.78516,-5.59571 2.79823,-0.36106 3.06777,0.34092 3.60937,11.73242 0.51451,9.92924 2.07673,13.5421 7.40234,16.25 3.1593,1.53453 5.23587,1.89427 9.92969,1.53321 10.83188,-0.99292 14.44304,-5.77762 15.34571,-20.76172 l 0.56836,-8.8457 2.88867,-0.30664 c 3.79115,-0.40622 5.05463,0.83881 6.31836,6.4082 0.5777,2.52743 1.71537,5.32544 2.4375,6.31836 1.80531,2.25666 6.13658,2.16794 9.92773,-0.16992 l 2.79883,-1.89649 0.57812,4.24219 c 1.17346,8.57524 6.49968,13.5407 15.34571,14.44336 10.83188,1.26372 19.85678,-4.33361 21.66211,-14.44336 0.62282,-3.24957 0.66042,-5.95668 0.0918,-8.12305 -0.46938,-1.80532 -0.48634,-3.12304 -0.48632,-3.12304 0.16849,-0.6175 2.59924,0.49989 4.76562,1.02343 l 2.81445,0.65625 -0.51367,4.15039 c -0.99293,8.30445 3.79131,16.24912 10.83203,18.95703 10.83193,3.4301 23.46942,-1.44665 27.08008,-9.93164 1.44423,-3.70088 1.62447,-11.73313 0.35156,-15.34375 -0.83939,-2.43717 -0.37703,-1.8464 3.38708,-1.8464 2.16635,0 4.10565,-0.95171 4.82777,-1.27664 1.26372,-0.52354 1.35156,0.99214 1.35156,13.53906 0,12.63719 0.16368,13.54235 1.80664,15.34766 2.07609,2.25664 6.86096,2.61542 9.02734,0.5664 1.53453,-1.17345 1.80496,-2.97798 2.16602,-13.53906 l 0.44141,-12.63672 3.34179,-1.44531 c 4.33278,-1.80532 5.14425,-0.90138 6.04688,6.41016 0.77627,6.31853 2.8892,9.02539 6.95117,9.02539 3.33982,0 4.15224,-1.44424 4.60351,-7.94336 0.46035,-6.49914 2.52556,-10.83205 5.41407,-10.83203 2.70795,0 4.51525,3.6118 6.68164,13.54101 2.16642,9.92922 0.34242,18.05178 5.50586,20.75977 6.58938,3.06903 18.05284,-9.92883 23.46875,-18.05274 1.98587,-2.79822 4.06081,-5.14453 4.42187,-5.14453 1.44427,0 6.8607,3.97024 7.40235,5.32422 0.89359,2.52745 -0.75687,6.40947 -6.13672,6.13867 -16.24781,0.55965 -13.54157,19.85899 4.96289,15.3457 3.70091,-0.60478 8.84843,-4.15234 9.93164,-4.15234 15.34515,-4.06195 24.37101,0.35151 41.52148,0.0156 6.86022,0.0559 9.92681,-0.56916 12.63477,-1.98633 3.43011,-1.71505 3.97408,-1.71353 9.93164,-0.24219 3.43007,0.85752 9.92844,1.53516 13.53906,1.53516 8.30446,-0.0242 12.63711,-1.80576 17.15039,-6.58985 l 2.52735,-2.97851 1.89648,3.06836 c 3.88142,6.3186 12.63781,9.02743 20.76172,6.5 8.93631,-2.79825 16.24673,-15.34617 14.44141,-25.27539 -0.58674,-3.79117 4.42053,-8.78321 7.21875,-8.78321 2.43719,0 2.79701,0.27085 2.3457,2.07617 -1.35398,5.59648 2.52745,11.73375 7.94336,13.53907 2.61774,0.55062 8.0335,-0.37924 11.73437,-2.07617 1.08318,-0.4423 1.26341,-0.0998 0.90235,1.35351 -0.35226,1.53452 1.41541,5.40546 -4.72266,7.66211 -9.02657,3.4301 -15.58725,2.17829 -17.39258,6.24023 -2.6177,5.50621 -2.22588,8.39946 3.98438,11.10743 3.24956,1.53451 14.81516,-0.19359 18.42578,-2.48633 5.77701,-3.24956 9.54623,-4.92132 11.35156,-12.14258 0.44228,-2.97877 1.26234,-4.24266 4.06055,-6.22852 3.61062,-2.43716 14.08377,-3.76338 20.40234,-11.3457 l 3.15821,-4.33203 3.25195,1.89648 c 1.80529,1.08319 3.61118,2.61687 4.0625,3.51954 1.35401,2.70797 -2.16676,6.40952 -7.85352,8.21484 -9.02657,2.97876 -10.83203,3.97071 -10.83203,7.31055 0,2.07611 0.83896,3.97161 2.61719,5.86718 3.79117,4.15223 9.02648,3.9727 17.15039,-0.63086 l 6.22852,-3.43164 21.6621,1.625 c 31.593,-0.7853 45.13356,1.80594 48.74414,-1.80468 4.33278,-4.33276 3.43109,-9.92857 3.97266,-46.9375 -0.78531,-28.88502 -1.26448,-70.407014 -2.34766,-102.000004 0.2075,-9.026567 -4.15068,-17.15039 -9.92773,-17.15039 -4.42303,-0.03341 -15.34642,0.423666 -92.07227,-0.460938 C 642.66161,10.734261 566.83697,10.336517 524.41211,9.7949219 402.55345,8.350671 442.33278,9.465525 400.81055,9.0683594 c -8.89784,0.1602671 -6.00133,10.8701516 3.33203,10.6523436 38.81423,0.180529 82.98161,0.905934 119.08789,1.140625 139.00913,0.902657 246.4246,2.166282 255.45117,2.527344 8.66547,0.424249 4.06358,21.66554 5.50781,34.302734 -1.08317,17.15048 1.89595,57.768124 1.17383,73.113284 -0.72212,15.34517 -0.30652,29.78843 -0.78516,31.59375 -1.71496,7.13099 -9.93002,6.50024 -31.59374,6.86133 -10.8319,0.17147 -12.63707,0.0295 -17.1504,-0.32618 l -7.13086,-0.64257 0.42579,-4.1504 c 0.38812,-3.7911 0.0972,-4.60225 -2.89063,-8.21289 -1.80529,-2.16636 -4.69272,-4.96716 -6.49805,-6.14062 -1.80532,-1.17345 -3.34134,-2.16559 -3.43164,-2.25586 -0.11716,-0.0758 0.24414,-1.44359 0.79493,-3.06836 1.44423,-4.15224 0.28952,-7.85358 -3.06836,-9.92969 -9.92924,-6.5894 -23.46929,5.05378 -16.24805,14.44141 1.08317,1.53452 1.89453,3.16001 1.89453,3.61133 0,1.80532 -16.79041,8.63867 -18.5957,8.63867 -0.37002,0 -0.40773,-0.74235 -0.0918,-1.62695 0.31597,-0.90266 0.0885,-3.70065 -0.50391,-6.31836 -1.08321,-4.51328 -0.99492,-4.69216 1.26172,-7.03907 2.88851,-2.97877 2.9798,-4.33315 0.44336,-7.85351 l -1.89648,-2.70899 -10.83203,0.55079 c -11.7346,0.59575 -16.24709,1.71649 -18.95508,5.95898 -2.70796,3.1593 -9.38359,3.79358 -18.41016,0.65234 -3.79117,-1.35399 -8.39523,-2.4375 -9.92968,-2.4375 -9.02658,0 -18.95611,7.49196 -21.66407,17.15039 -2.70795,8.48498 -8.03324,16.09375 -18.05273,16.09375 -5.05486,0 -14.44312,-1.44543 -15.3457,-2.25781 -0.16252,-0.18055 -0.74917,-5.23361 -1.26368,-10.83008 -0.8846,-9.92922 -0.83151,-11.73702 0.5586,-15.34765 2.43719,-7.22126 2.25922,-10.82946 -0.4668,-12.63477 -2.79825,-1.71505 -7.67468,-0.9037 -10.83398,1.89453 -3.45196,2.99949 -3.80002,6.07444 -1.35352,10.29102 1.08321,1.17345 2.07645,27.98148 1.17383,30.68945 -0.29783,0.99292 -1.89671,2.52788 -3.52149,3.25 -3.24956,1.53452 -20.76086,1.71457 -28.88476,0.35156 -2.97876,-0.54158 -7.58215,-1.80721 -11.73438,-1.26562 0.90267,-9.02657 -1.35324,-11.73187 -8.93554,-18.95313 -1.80533,-1.17344 -3.34139,-2.16755 -3.43164,-2.25781 -0.11717,-0.0758 0.24416,-1.44357 0.79492,-3.06836 1.44427,-4.15222 0.28948,-7.85356 -3.06836,-9.92969 -9.92927,-6.58933 -23.46929,5.05575 -16.24805,14.44336 1.08321,1.53453 1.89649,3.24985 1.89649,3.70118 0,0.49646 -1.62504,2.70625 -3.70118,4.96289 -2.79821,3.06904 -7.76163,9.02776 -9.02539,8.9375 -3.61062,-1.17346 -4.24432,-8.39658 -3.79297,-17.15235 0.58674,-9.92923 -0.25132,-12.63578 -4.51171,-15.34375 -4.60354,-3.33983 -9.93171,-3.24986 -15.34766,0.23438 -4.87434,3.1593 -6.9503,3.33862 -8.39453,0.67578 -1.44423,-2.6177 -3.97095,-2.43622 -8.93555,0.63281 l -4.15234,2.61914 -2.43555,-2.70898 c -2.07609,-2.34691 -2.98022,-2.61735 -5.95898,-2.16602 -1.98588,0.28883 -4.24187,1.26336 -5.14454,2.16602 -2.43711,2.43717 -6.77108,1.98478 -13.54101,-1.44531 -9.02653,-4.60356 -18.95523,-3.61088 -29.78711,2.97851 -6.13807,3.88142 -9.92811,3.97462 -14.44141,0.30078 -8.57523,-6.67966 -14.44318,-8.30616 -20.76171,-6.32031 -3.24957,0.90265 -5.32551,2.70843 -11.73438,9.92969 -7.22126,8.30444 -7.85194,8.84507 -9.02539,7.31054 -1.35399,-1.5345 -1.35632,-1.71379 0.16016,-3.60937 1.35398,-1.62478 1.53536,-2.61889 0.82226,-5.59766 -1.17345,-5.32568 -4.15237,-6.85831 -10.83203,-5.41406 -4.60355,1.08321 -5.23681,0.99141 -7.22266,-0.75977 -3.24955,-2.79818 -8.57312,-2.52611 -11.73242,0.47071 -2.43717,2.70797 -2.61807,4.24076 -1.17383,16.24609 1.08319,9.92923 0.56777,14.44437 -1.89648,17.15235 -2.07611,2.25662 -3.84458,1.57485 -4.7832,0.35937 -1.08321,-1.26371 -1.35352,-3.9709 -1.35352,-13.53906 -1e-5,-18.05313 -2.43897,-22.56641 -11.73633,-22.56641 -5.41594,0.0894 -9.92906,2.70812 -11.73437,7.49219 -2.34691,4.69382 -3.24963,3.24955 -2.07617,-3.33984 1.53451,-8.75578 1.17434,-12.63805 -1.44336,-14.44336 -3.1593,-2.70797 -7.2211,-3.431 -11.73438,-1.89649 -5.23541,1.89558 -5.68743,4.51445 -2.34766,13.54102 3.61064,9.92922 3.6124,14.4421 0.11915,18.05273 -3.33983,3.70089 -8.21469,3.70236 -8.66602,0.0527 -0.17151,-1.35399 -1.9858,-3.61139 -4.60352,-5.6875 -2.34689,-1.89558 -4.33203,-4.06304 -4.33203,-4.78516 0,-0.75823 0.79371,-2.97662 1.80469,-5.05273 3.24957,-6.67967 2.07584,-10.83305 -3.70117,-13.54102 -5.14514,-2.25664 -10.83274,-1.26339 -14.44336,2.4375 -3.24957,3.61063 -3.24762,7.31104 0.0371,12.63672 l 2.52539,3.88086 -3.25,5.23633 c -3.79116,6.3186 -12.63641,14.44196 -13.53906,12.63672 -0.59575,-0.64993 -0.5697,-4.24265 0.0566,-10.83204 0.99292,-10.83187 0.52474,-13.53842 -2.34571,-15.34375 -2.61771,-1.53451 -4.87448,-1.26445 -7.49218,0.99219 -2.25665,1.98584 -2.34766,2.34643 -2.34766,12.63672 0,7.85311 -0.33355,10.83335 -1.35351,12.63867 -1.80532,2.88849 -5.2354,2.79731 -7.94336,-0.22656 -1.98586,-2.25664 -2.16602,-3.07082 -2.16602,-11.73633 0,-8.30444 -0.64592,-9.92875 -2.18945,-12.63672 -1.44426,-2.07611 -2.5716,-2.76562 -5.64063,-2.76562 -5.59647,0 -6.25085,1.77327 -6.07031,10.16797 0.0993,5.777 -0.27945,7.85295 -2.16602,11.73437 -1.26372,2.70798 -3.79234,6.40996 -5.59765,8.125 -2.97877,2.88851 -3.33938,3.06925 -4.69336,1.625 -1.17346,-1.354 -1.44403,-4.6048 -1.71485,-18.95703 -0.2708,-16.24782 -0.43291,-18.05211 -2.16601,-19.85742 -2.52744,-2.97877 -9.02609,-3.07137 -12.63672,-0.17383 -4.65625,4.10723 -5.16648,12.29974 -10.47266,15.61914 -2.16638,1.26372 -4.96249,-1.35576 -11.732418,-11.73633 -3.63114,-5.66044 -3.286508,-7.20147 -9.570313,-7.60937 -4.152223,-0.26177 -4.873798,0.0159 -7.220703,2.61914 -3.339828,3.61063 -3.429845,7.12949 -0.30664,9.92773 1.624781,1.35398 2.616608,3.52039 3.158203,6.67969 0.848496,4.87435 0.164033,18.05343 -1.171875,21.66406 l -0.775391,2.25586 -22.568359,0.01 c -8.665459,0.049 -25.273825,0.7048 -29.78711,-0.99219 -5.777002,-2.25665 -3.611328,-20.76068 -3.611328,-35.20312 0.01083,-44.230221 -1.804734,-107.416721 -0.207031,-111.027349 0.821417,-1.985844 3.069435,-4.513094 7.853516,-5.054687 11.734538,-1.353986 124.973329,5.245971 291.964839,1.09375 1.98584,-0.04965 7.71554,-0.275403 16.35547,-0.558594 5.96755,-0.07243 4.3075,-11.92825 -0.61328,-11.8886719 z M 670.83984,146.56445 c 1.17347,1.26371 1.44475,6.49981 0.38868,8.21485 -0.36095,0.58673 -1.53402,1.53415 -2.61719,2.16601 -5.95752,3.43009 -9.93084,-2.88927 -5.50781,-9.02734 2.10879,-2.71414 5.10182,-4.14925 7.73632,-1.35352 z m -332.2832,5.78125 c 3.00819,0.0911 5.80467,3.93222 5.80469,8.24805 0,4.06196 -1.98681,8.75429 -3.97266,9.92773 -2.34691,0.99292 -6.31761,0.67874 -7.31055,-0.62109 -2.45781,-4.94973 -1.0646,-17.29033 5.47852,-17.55469 z m 283.18164,0.90039 c 2.25664,0.0406 4.51239,0.99378 6.04688,3.16016 2.34693,3.24957 2.16656,10.67648 -0.45118,14.28711 -4.87434,6.40886 -14.44332,3.33986 -14.44336,-4.60352 1.18508,-5.00637 4.71463,-12.45778 8.84766,-12.84375 z m -239.7793,2.05274 c 0.59796,0.0144 1.2112,0.0728 1.83985,0.13086 5.2532,0.48538 7.40039,2.88779 7.40039,7.67187 0,2.88851 -0.48663,4.06246 -2.25586,5.32617 -3.24956,2.34691 -9.92878,2.79888 -12.63672,0.86719 -3.06903,-2.43717 -2.70891,-7.67242 0.70313,-11.73437 1.50111,-1.9479 3.15534,-2.30417 4.94921,-2.26172 z"
       transform="scale(0.26458333)"
       id="path12"
       inkscape:connector-curvature="0"
       sodipodi:nodetypes="cccccccccccccsccccccsccccccscccscscscccccccccccccccccccccccscsccccccscccccscccccccccccccscccccccccccccccscccccccccccccccscccccccccccssccccccccscscccccccccccccccscccccccccccccccccccccccccscccccccccsccccccccccsccscsccccccccccccccccccccccccccccccccccccccccscccc" />
  </g>
  <g
     style="stroke-opacity:1;fill-opacity:1;stroke:#3e3e3e;stroke-dasharray:none;stroke-miterlimit:4;stroke-width:0.79374999;fill:#ffffff"
     id="g36">
    <g
       id="g34"
       style="stroke-width:0.79374999;stroke-opacity:1;fill-opacity:1;filter:url(#filter982-92);stroke:#3e3e3e;stroke-miterlimit:4;stroke-dasharray:none;enable-background:new;fill:#ffffff">
      <path
         style="stroke-opacity:1;fill-opacity:1;stroke:#3e3e3e;stroke-dasharray:none;stroke-miterlimit:4;stroke-width:0.79374999;fill:#ffffff"
         d="M102.889568281 12.2343068102C100.533790779 12.1513537934 98.6952833021 14.1213198204 98.3881415409 16.0369979529C97.9288579629 19.1601323593 99.150573765 21.9156673463 101.97058067 22.742379488C103.256575174 23.3578208435 104.267166256 24.6716684802 103.16488421 25.6820942961C102.540256989 26.2240521263 101.786887654 25.7453303653 101.603175195 24.9838362682C100.905062989 23.6978393333 99.0313490211 24.1938724512 98.847636562 25.6635820882C98.5261361131 27.408862601 99.7111993475 28.4190988473 100.960453791 28.7865261957C107.206721145 30.3480942496 109.227570346 23.4588342605 104.910295964 20.8868411199C103.808013918 20.124428825 102.613797871 20.2993343143 102.246370523 18.5907960502C101.235944707 14.8246631764 104.450800943 15.6510015256 104.450800943 16.9369979744C104.452745247 19.8764189496 107.849790094 18.8663375186 107.574221405 16.7352574392C106.922036099 13.6121230328 105.602103762 12.3298222205 102.889568281 12.2343068102C102.889568281 12.2343068102 102.889568281 12.2343068102 102.889568281 12.2343068102"
         id="path16" />
      <path
         style="stroke-opacity:1;fill-opacity:1;stroke:#3e3e3e;stroke-dasharray:none;stroke-miterlimit:4;stroke-width:0.79374999;fill:#ffffff"
         d="M110.928809935 8.64505532505C110.059426388 8.62370686308 109.166497316 9.27669954104 109.264094104 10.7797078207C109.30175528 11.5329344927 109.140018321 26.2746477867 109.343365824 28.0336793922C109.536522741 29.704558668 113.120349617 30.2471046503 113.08529867 27.4915903215C112.662755153 24.8277402223 112.800565017 19.1404914827 112.717893195 17.1196398508C117.024605144 15.7505880663 115.432389993 24.9195745784 115.524246222 27.8589957966C115.634476128 30.155416117 118.872399105 30.0095325298 118.964255334 27.6304379573C118.888359413 25.6242220766 119.554410039 18.4916469781 117.849145741 14.8640504083C116.899775943 12.844460873 115.215425068 11.9112312317 112.258874528 13.5537593903C112.175284023 12.3596196571 112.506683411 10.981736356 112.479127758 10.1550242143C112.444679545 9.2077498904 111.69591335 8.663893204 110.928809935 8.64505532505C110.928809935 8.64505532505 110.928809935 8.64505532505 110.928809935 8.64505532505"
         id="path18" />
      <path
         style="fill:#ffffff;fill-opacity:1;stroke:#3e3e3e;stroke-width:3;stroke-miterlimit:4;stroke-dasharray:none;stroke-opacity:1"
         d="m 468.87891,49.849609 c -3.4238,-3.46687 -11.09881,-1.703356 -10.57032,3.470703 0.52078,15.622905 0.10204,31.594922 0.44922,45.134766 -0.93736,14.928552 13.54004,16.317572 12.84571,-0.902344 0.65964,-10.762443 -0.62916,-21.874275 -0.004,-32.636718 0.63522,-5.248385 10.80261,1.506347 16.35742,-2.9375 3.43703,-4.513285 1.48565,-12.388383 -3.51172,-13.59375 -5.27833,-1.148372 -10.76538,0.538881 -15.5664,1.464843 z"
         transform="scale(0.26458333)"
         id="path20"
         inkscape:connector-curvature="0"
         sodipodi:nodetypes="cccccccc" />
      <path
         id="path22"
         transform="scale(0.26458333)"
         d="m 512.29849,46.897411 c -23.95512,0.347176 -24.53236,62.973679 -1.3063,62.973679 27.42688,1.56229 25.57388,-62.973679 1.3063,-62.973679 z m -1.68911,17.84087 c 13.887,-0.03819 10.76197,31.938973 1.35351,31.591797 -9.37374,-0.520763 -10.06762,-31.591797 -1.35351,-31.591797 z"
         style="fill:#ffffff;fill-opacity:1;stroke:#3e3e3e;stroke-width:3;stroke-miterlimit:4;stroke-dasharray:none;stroke-opacity:1"
         inkscape:connector-curvature="0"
         sodipodi:nodetypes="cccccc" />
      <path
         style="fill:#ffffff;fill-opacity:1;stroke:#3e3e3e;stroke-width:3;stroke-miterlimit:4;stroke-dasharray:none;stroke-opacity:1"
         d="m 556.91761,46.528866 c -24.91729,-0.34425 -23.91474,64.257664 -3.23988,63.092224 31.12071,-0.69524 22.34522,-62.82827 3.23988,-63.092224 z m -0.81019,16.56879 c 10.0681,0.416611 10.41545,32.635277 -0.26367,31.59375 -13.19268,-1.56229 -7.29087,-31.59375 0.26367,-31.59375 z"
         transform="scale(0.26458333)"
         id="path24"
         inkscape:connector-curvature="0"
         sodipodi:nodetypes="scsccc" />
      <path
         style="stroke-opacity:1;fill-opacity:1;stroke:#3e3e3e;stroke-dasharray:none;stroke-miterlimit:4;stroke-width:0.79374999;fill:#ffffff"
         d="M163.978476562 12.2815901051C162.986667461 12.3799592682 161.334689254 12.8781308778 160.343883899 13.4936266739C159.241601854 13.0894563475 158.062665609 12.1356423559 156.960383563 13.1736252837C156.583769377 13.4675674055 156.234718135 14.0922595182 156.096932575 13.2747329995C155.812177049 12.1724502249 153.708799418 12.3561019244 153.708799418 13.5134989228C154.112971688 18.0144869796 154.131255441 23.7582921308 153.975098635 27.4325661017C153.970505216 29.7289888524 157.19014201 30.1881606329 157.006427121 27.4857306742C157.116657027 25.4648790424 156.8041101 21.4662746876 156.914340005 18.8024245884C156.703067032 16.414145122 158.567628187 15.4957113939 159.118770425 18.1411902472C159.348412214 21.172467695 158.824910693 25.2140273231 159.064655574 28.2453047709C159.184069888 29.6231603656 161.912514639 30.5421917243 162.004373299 28.1888178682C162.234015088 24.790113072 161.664139477 21.0237048361 161.710068807 17.1657152467C162.123425485 16.1552891877 164.006588773 15.9714068451 164.006588773 17.2454621055C164.346458037 20.8278810621 164.208828022 25.561481805 164.181272369 27.4904772073C164.144529877 30.062471077 167.304459514 30.0625075327 167.212600854 27.4491801825C167.132685084 25.2446136612 167.740520807 15.1098034324 166.399410134 13.2726654748C165.710482337 12.3426145281 164.741557698 12.2059070854 163.978476562 12.2815901051C163.978476562 12.2815901051 163.978476562 12.2815901051 163.978476562 12.2815901051"
         id="path26" />
      <path
         style="fill:#ffffff;fill-opacity:1;stroke:#3e3e3e;stroke-width:3;stroke-miterlimit:4;stroke-dasharray:none;stroke-opacity:1"
         d="m 661.68359,47.554688 c -6.20856,-0.07111 -10.76989,1.253351 -14.67773,7.308593 -13.44667,20.835735 -10.82175,68.474769 31.58398,53.830079 6.24917,-2.08305 2.84579,-15.623107 -3.02148,-12.845704 -13.19268,3.471759 -22.31199,1.14442 -23.35352,-9.375 6.24917,-0.659634 21.27185,1.493408 27.17383,-0.728515 9.72092,-10.762446 3.6448,-37.944941 -17.70508,-38.189453 z m 0.11133,14.455078 c 7.64316,-0.146764 9.99845,7.975296 10.04102,12.910156 -3.81893,0.41661 -14.98771,0.485868 -18.80664,-0.02344 0.184,-6.081317 2.75169,-12.560386 8.76562,-12.886718 z"
         transform="scale(0.26458333)"
         id="path28"
         inkscape:connector-curvature="0"
         sodipodi:nodetypes="ssccccscccc" />
      <path
         id="path30"
         transform="scale(0.26458333)"
         d="m 697.5343,48.591631 c -2.82073,-0.0098 -4.97886,2.05851 -5.8468,5.0529 0.48604,9.720919 0.79883,38.189148 0.79883,52.076169 -0.0451,9.72092 14.94192,9.36708 13.90039,-1.15234 -0.0382,-13.539859 -0.87512,-29.213605 -0.17383,-41.017579 3.47176,-0.902656 8.34612,0.663625 11.4707,0.628907 12.2707,-1.745542 5.82847,-16.285892 -2.85156,-15.824219 -3.40232,-0.07638 -6.03939,0.421729 -10.20547,2.99083 -1.14569,-2.083054 -5.39982,-2.748799 -7.09226,-2.754668 z"
         style="fill:#ffffff;fill-opacity:1;stroke:#3e3e3e;stroke-width:3;stroke-miterlimit:4;stroke-dasharray:none;stroke-opacity:1"
         inkscape:connector-curvature="0"
         sodipodi:nodetypes="scccccccs" />
      <path
         style="fill:#ffffff;fill-opacity:1;stroke:#3e3e3e;stroke-width:3;stroke-miterlimit:4;stroke-dasharray:none;stroke-opacity:1"
         d="m 755.41992,53.158203 c -0.76378,6.596338 -2.15947,17.572078 -5.28406,23.82124 -3.08233,-8.17407 -2.19981,-14.371949 -7.65734,-25.817334 -2.34618,-4.979541 -11.88528,-1.78764 -10.84375,2.34375 1.56229,12.15115 6.59397,23.145434 9.7207,34.716797 1.32448,4.901635 2.01381,9.721089 -0.16992,14.234374 -0.76379,2.39551 -2.42915,3.43598 -4.85938,3.4707 -4.51328,0.0972 -6.25,3.12543 -6.25,6.25 0.0764,3.33289 2.74205,6.59618 6.59571,6.94336 4.86045,0.26038 11.80414,0.33141 14.23437,-5.90039 1.56229,-5.20763 3.1235,-10.06971 4.85937,-15.277341 3.29817,-12.498322 5.90226,-23.26 10.06836,-34.716797 5.61343,-14.266126 -8.45333,-18.762927 -10.41406,-10.068359 z"
         transform="scale(0.26458333)"
         id="path32"
         inkscape:connector-curvature="0"
         sodipodi:nodetypes="ccccscccccccc" />
    </g>
  </g>
  <g
     style="stroke-opacity:1;fill-opacity:1;stroke:#3e3e3e;stroke-dasharray:none;stroke-miterlimit:4;stroke-width:0.79374999;fill:#ffffff"
     id="g40">
    <path
       id="path38"
       d="M97.1201690264 1.02319334648C96.9380166329 1.01987705903 96.7531601977 1.02398974231 96.5656817418 1.03662915257C94.182333626 1.19731293721 91.362338349 4.54283590089 95.7678862726 5.08741295236C94.1802090218 7.31982342216 94.602237954 10.1307434909 97.115001714 11.2825152076C97.9270158913 11.8795853272 100.458800547 10.1598473926 99.5034853922 9.1090044267C96.6375505117 7.1983809966 98.4049354061 5.04932380076 99.9334333035 6.48229150563C100.243908612 6.95994749544 101.485780742 8.05814717327 101.820139988 5.57433650248C101.934328862 2.88752241966 99.8524390545 1.07293906065 97.1201690264 1.02319326711C97.1201690264 1.02319326711 97.1201690264 1.02319334648 97.1201690264 1.02319334648"
       style="stroke-width:0.79374999;stroke-opacity:1;fill-opacity:1;filter:url(#filter982-92);stroke:#3e3e3e;stroke-dasharray:none;stroke-miterlimit:4;enable-background:new;fill:#ffffff" />
  </g>
  <g
     style="stroke-opacity:1;fill-opacity:1;stroke:#3e3e3e;stroke-dasharray:none;stroke-miterlimit:4;stroke-width:0.79374999;fill:#ffffff"
     id="g58">
    <g
       id="g52"
       style="stroke-opacity:1;fill-opacity:1;stroke:#3e3e3e;stroke-dasharray:none;stroke-miterlimit:4;stroke-width:0.79374999;fill:#ffffff">
      <path
         id="path42"
         transform="scale(0.26458333)"
         d="m 42.357422,36.115234 c -8.626166,0.289172 -7.985866,12.845222 1.943359,12.498047 2.221924,-0.100681 2.187595,0.162101 4.513672,0.09961 0.381893,18.40031 2.396004,34.021086 2.048828,52.074219 -0.1597,9.37375 13.886719,10.41655 13.886719,-0.14453 -0.05555,-19.094666 -1.075702,-33.677816 -2.429688,-52.078127 5.207636,-0.590198 4.511627,0.003 8.677735,-0.380859 C 77.24721,48.464805 77.248441,36.341367 70.478516,36.341366 54.838137,35.880159 49.14739,36.42088 42.357422,36.115234 Z"
         style="fill:#ffffff;fill-opacity:1;stroke:#3e3e3e;stroke-width:3;stroke-miterlimit:4;stroke-dasharray:none;stroke-opacity:1;enable-background:new"
         inkscape:connector-curvature="0"
         sodipodi:nodetypes="ccccccccc" />
      <path
         id="path54"
         d="M81.3418029961 12.8229898135C79.8427796816 12.8513150464 78.2904031387 13.3833815397 77.3596175046 14.0012124549C75.7192379002 14.9824856154 76.9536064472 18.0757965306 79.4612981447 16.8816568207C81.2967259341 15.5270719273 82.5660988556 16.771650745 82.3272727128 18.9688676631C72.0576718422 19.064398914 76.8344143028 31.6267011224 83.2827704299 28.0442825217C85.1933928017 30.0504353506 87.2334969635 27.8969836902 85.5617007346 26.4640162499C84.9752438461 20.8851322744 85.7887026484 16.7982590967 85.0025620749 14.6673216256C84.2863164798 13.2700295432 82.8408289563 12.7946645805 81.3418029961 12.8229898135C81.3418029961 12.8229898135 81.3418029961 12.8229898135 81.3418029961 12.8229898135M81.6084553677 21.5873126197C81.8603122395 21.5839076968 82.1273217987 21.6029926216 82.4094390659 21.6477738794C82.4667583985 22.459789115 82.6724719376 25.4691649375 82.6724719376 25.7079910803C78.8426044234 25.8678957199 77.830559957 21.638390167 81.6084553677 21.5873126197C81.6084553677 21.5873126197 81.6084553677 21.5873126197 81.6084553677 21.5873126197"
         style="stroke-width:0.79374999;stroke-opacity:1;fill-opacity:1;stroke:#3e3e3e;stroke-miterlimit:4;stroke-dasharray:none;enable-background:new;fill:#ffffff" />
      <path
         id="path44"
         transform="scale(0.26458333)"
         d="M 97.611328 49.400391 C 92.364839 49.487866 86.324541 51.972724 83.669922 55.558594 C 79.263131 61.511305 82.66749 73.249178 90.265625 67.015625 C 98.945016 59.37776 105.19435 63.542241 104.5 74.304688 C 69.782428 76.457173 73.602664 122.90905 111.09766 106.5918 C 118.73552 113.88248 126.37271 101.38636 119.08203 95.484375 C 115.64498 84.37475 118.49285 76.041262 117 64.931641 C 115.28582 54.51637 106.35547 49.254604 97.611328 49.400391 z M 103.80664 85.761719 C 104.22325 89.580651 106.72396 96.524395 105.12695 97.21875 C 87.351148 101.47985 88.75817 85.449761 103.80664 85.761719 z "
         style="fill:#ffffff;fill-opacity:1;stroke:#3e3e3e;stroke-width:3.00000001;stroke-miterlimit:4;stroke-dasharray:none;stroke-opacity:1;enable-background:new" />
      <path
         id="path46"
         transform="scale(0.26458333)"
         d="m 128.44336,40.957031 c 0.20068,6.947643 1.17008,53.845553 0.71875,60.789059 -0.69435,10.41527 12.49805,10.06814 12.49805,0.34375 0.2083,-9.02656 0.01,-20.95257 0.14843,-32.062192 0.1003,-5.242189 14.50114,-9.76201 14.52124,0.325561 0.73359,11.872067 -0.14883,19.760279 -0.0447,32.605771 0.0625,9.37375 13.19336,8.67828 13.19336,-0.24414 -0.18401,-14.928546 5.55494,-65.962296 -28.1211,-48.603512 -0.1597,-3.228734 0.59112,-8.332419 0.38281,-12.845703 -0.32314,-7.812186 -13.29323,-6.633998 -13.29687,-0.308594 z"
         style="fill:#ffffff;fill-opacity:1;stroke:#3e3e3e;stroke-width:3;stroke-miterlimit:4;stroke-dasharray:none;stroke-opacity:1;enable-background:new"
         inkscape:connector-curvature="0"
         sodipodi:nodetypes="cccccccccc" />
      <path
         id="path48"
         transform="scale(0.26458333)"
         d="M 196.28516 47.546875 C 167.46958 48.102356 169.55308 110.03711 198.02148 110.03711 C 223.36531 110.52316 221.2818 47.546875 196.28516 47.546875 z M 195.41797 62.126953 C 206.52759 61.640907 207.91563 95.803215 196.91016 96.150391 C 183.02313 96.671154 183.0238 62.474129 195.41797 62.126953 z "
         style="fill:#ffffff;fill-opacity:1;stroke:#3e3e3e;stroke-width:3.00000001;stroke-miterlimit:4;stroke-dasharray:none;stroke-opacity:1;enable-background:new" />
      <path
         style="fill:#ffffff;fill-opacity:1;stroke:#3e3e3e;stroke-width:3;stroke-miterlimit:4;stroke-dasharray:none;stroke-opacity:1;enable-background:new"
         d="m 224.05469,51.498047 c 0.7985,18.747485 -0.41769,41.94801 0.25586,52.363283 -0.0798,7.63786 11.45703,7.29061 11.45703,1.07617 0.0333,-11.456795 1.56242,-27.472437 0.9375,-37.193359 1.49286,-3.020429 9.37305,-10.068937 9.37304,0.304687 0.22568,10.068095 0.52274,18.053003 0.18946,28.121094 -0.52077,16.317258 11.80321,15.969438 12.15039,6.595698 0.52076,-7.637853 -0.4857,-16.314713 -0.58985,-26.382808 0.21177,-11.803971 7.98384,-22.566808 10.41407,-4.513671 1.56229,12.151147 -3.81868,24.995882 1.875,34.716799 2.39552,4.16611 12.15237,4.85955 10.76367,-3.47266 -2.81213,-17.011607 1.94396,-34.37126 -3.26367,-48.605468 -7.63787,-12.151147 -19.09512,-1.942608 -22.91407,-2.810546 -4.1661,-1.215118 -9.34532,-3.85894 -13.88671,-2.56836 -2.25665,0.867939 -3.92178,2.657163 -5.78907,2.644532 -0.0635,-2.341403 -2.03911,-4.686112 -5.55078,-4.582032 -4.03867,-0.222746 -5.73948,1.373359 -5.42187,4.306641 z"
         transform="scale(0.26458333)"
         id="path50"
         inkscape:connector-curvature="0"
         sodipodi:nodetypes="ccccccccccccccccc" />
    </g>
  </g>
</svg>
