<?xml version="1.0" encoding="UTF-8" standalone="no"?>
<!-- Created with Inkscape (http://www.inkscape.org/) -->

<svg
   xmlns:dc="http://purl.org/dc/elements/1.1/"
   xmlns:cc="http://creativecommons.org/ns#"
   xmlns:rdf="http://www.w3.org/1999/02/22-rdf-syntax-ns#"
   xmlns:svg="http://www.w3.org/2000/svg"
   xmlns="http://www.w3.org/2000/svg"
   xmlns:sodipodi="http://sodipodi.sourceforge.net/DTD/sodipodi-0.dtd"
   xmlns:inkscape="http://www.inkscape.org/namespaces/inkscape"
   width="784.41595"
   height="180.3875"
   version="1.1"
   viewBox="0 0 207.54339 47.727526"
   id="svg58"
   sodipodi:docname="header2.svg"
   inkscape:version="0.92.3 (2405546, 2018-03-11)">
  <sodipodi:namedview
     pagecolor="#ffffff"
     bordercolor="#666666"
     borderopacity="1"
     objecttolerance="10"
     gridtolerance="10"
     guidetolerance="10"
     inkscape:pageopacity="0"
     inkscape:pageshadow="2"
     inkscape:window-width="1920"
     inkscape:window-height="1017"
     id="namedview60"
     showgrid="false"
     units="px"
     inkscape:zoom="1.3997312"
     inkscape:cx="512.77366"
     inkscape:cy="-47.981663"
     inkscape:window-x="-8"
     inkscape:window-y="-8"
     inkscape:window-maximized="1"
     inkscape:current-layer="svg58"
     fit-margin-top="0"
     fit-margin-left="0"
     fit-margin-right="0"
     fit-margin-bottom="0"
     inkscape:snap-global="false" />
  <metadata
     id="metadata62">
    <rdf:RDF>
      <cc:Work
         rdf:about="">
        <dc:format>image/svg+xml</dc:format>
        <dc:type
           rdf:resource="http://purl.org/dc/dcmitype/StillImage" />
        <dc:title></dc:title>
      </cc:Work>
    </rdf:RDF>
  </metadata>
  <defs
     id="defs8" />
  <g
     style="fill:#ffffff;stroke:#010101;stroke-width:0.79374999;stroke-miterlimit:4;stroke-dasharray:none"
     id="g12"
     transform="translate(-2.9809709,-6.5233082)">
    <path
       style="fill:#ffffff;stroke:#010101;stroke-width:2.99999976;stroke-miterlimit:4;stroke-dasharray:none"
       d="m 427.1582,6.2714844 c -21.76846,0.6122443 -25.89094,0.5152338 -39.77734,0.3945312 -8.53516,0.1455232 -6.45766,11.4589504 2.47461,11.2480464 37.10944,0.163807 81.64057,0.594178 116.15234,0.808594 133.2229,0.819001 248.63475,0.283745 257.54102,0.611328 8.31254,0.38665 3.8965,19.683607 5.26953,31.142578 -1.03903,15.571554 1.81697,52.373508 1.12305,66.433598 -0.69396,13.91948 -0.29267,30.512 -0.75196,32.16406 -1.64394,6.46764 -23.41599,4.39264 -44.16015,4.74414 -10.39064,0.15572 -12.0996,0.028 -16.44141,-0.29492 l -6.82812,-0.58203 0.4082,-3.76172 c 0.37115,-3.44121 0.0936,-5.83455 -2.77149,-9.10352 -1.72928,-1.96841 -4.49023,-4.50019 -6.23437,-5.58984 -1.72932,-1.06505 -3.20193,-1.96799 -3.29102,-2.04883 -0.11225,-0.0689 0.23336,-1.3108 0.75977,-2.78711 1.38418,-3.76108 0.27879,-7.13509 -2.94141,-9.0332 -9.53711,-5.97554 -22.48826,4.60497 -15.58593,13.11133 1.03906,1.39194 1.80704,2.86803 1.81445,3.27929 0.1697,7.10035 -14.91794,14.41016 -16.625,14.41016 -0.3549,0 -1.57773,-3.72475 -1.27344,-4.5332 0.30274,-0.819 0.0847,-3.36486 -0.48242,-5.73047 -1.03907,-4.11258 -0.95449,-4.25232 1.20898,-6.39649 2.76836,-2.70657 3.69632,-4.74469 1.26563,-7.94336 0,0 -2.30819,-3.04576 -5.30664,-3.36914 -3.44376,-0.3761 -7.75586,2.20508 -7.75586,2.20508 -11.24417,0.54132 -15.58591,1.55613 -18.1836,5.41211 -2.59766,2.86826 -9.35154,1.51865 -17.99804,-1.33203 -3.633,-1.23026 -8.05274,-2.21482 -9.53711,-2.21485 -8.6465,0 -18.18358,6.81986 -20.78125,15.57227 -2.59767,7.6979 -7.34765,13.00586 -16.95899,13.00586 -4.86134,0 -11.80079,-1.19934 -12.6914,-1.9375 -0.15572,-0.1638 -0.71912,-4.74501 -1.20899,-9.8418 -0.84979,-9.0336 -0.799,-10.65095 0.53321,-13.95507 2.3379,-6.57311 2.16892,-9.84208 -0.44727,-11.45899 -2.68301,-1.55716 -9.38867,-0.93394 -12.43164,1.60742 -1.64398,1.39195 -2.16406,2.62464 -2.16406,5.09571 0,1.8032 0.40878,3.6915 0.86523,4.2539 1.03907,1.06505 1.88809,22.75042 1.02344,25.21094 -9.0199,3.46765 -31.40217,3.06819 -39.97461,0.75195 0.86464,-10.29901 -1.1875,-9.63147 -8.46094,-13.18164 -1.72932,-1.06505 -5.6035,-1.96798 -5.67773,-2.04883 -0.11225,-0.0689 0.2353,-1.31275 0.76172,-2.78906 1.38417,-3.76107 0.27683,-7.13509 -2.94336,-9.0332 -9.53711,-5.97554 -22.48826,4.60497 -15.58594,13.11133 1.03907,1.39195 1.81836,2.95358 1.81836,3.36132 0,0.44993 -1.55978,2.45582 -3.54883,4.49805 -2.68301,2.78741 -7.45899,8.18944 -8.64648,8.11914 -3.46231,-1.06505 -4.08203,-7.62636 -3.63672,-15.57031 0.56409,-9.03361 -0.24075,-11.45941 -4.3418,-13.91992 -4.416,-3.03347 -9.53708,-2.95275 -14.73242,0.21289 -4.67577,2.86826 -6.67967,3.03357 -8.05273,0.61523 -1.38418,-2.37615 -3.82227,-2.21163 -8.57227,0.57227 l -3.9707,2.38086 -2.33399,-2.46094 c -1.98909,-2.1301 -2.85741,-2.37649 -5.71484,-1.96875 -1.90371,0.26222 -4.08206,1.14623 -4.93555,1.96875 -2.3379,2.21446 -6.49414,1.80376 -12.98828,-1.31055 -8.6465,-4.18288 -18.18357,-3.281 -28.57422,2.70508 -5.9004,3.51502 -9.53708,3.6208 -13.8418,0.27344 -8.23829,-6.08099 -13.84178,-7.55633 -19.89062,-5.72852 -3.1172,0.819 -5.12108,2.46012 -11.24414,9.03321 -6.93947,7.5573 -7.5332,8.04859 -8.64648,6.64257 -1.29886,-1.39194 -1.29818,-1.55693 0.15429,-3.27929 1.29883,-1.47631 1.47364,-2.37859 0.78711,-5.09571 -1.12442,-4.85072 -3.97069,-6.22243 -10.39062,-4.92187 -4.41603,0.98421 -5.00977,0.89933 -6.93946,-0.68945 -3.11719,-2.54137 -8.20116,-2.29446 -11.24414,0.42968 -2.33789,2.46052 -2.50918,3.86711 -1.125,14.76368 1.03907,9.0336 0.54551,13.10979 -1.81836,15.57031 -1.98906,2.04925 -2.85371,2.1301 -4.60156,0.32617 -1.03906,-1.1459 -1.29883,-3.62063 -1.29883,-12.30273 -1e-5,-16.38001 -2.33787,-20.49219 -11.24414,-20.49219 -5.19532,0.0812 -9.5371,2.46168 -11.24414,6.82031 -2.24883,4.25318 -3.11641,2.95093 -1.98828,-3.03516 1.46953,-7.94395 1.12383,-11.49246 -1.38477,-13.10937 -3.02813,-2.46051 -6.93944,-3.1146 -11.24414,-1.72266 -5.00977,1.72236 -5.45645,4.11274 -2.2539,12.30274 3.46231,9.0336 3.46325,13.10993 0.11523,16.3789 -3.20254,3.36037 -7.86719,3.36496 -8.3125,0.0488 -0.16441,-1.23026 -1.9037,-3.2804 -4.41601,-5.16797 -2.24883,-1.72236 -4.15625,-3.68956 -4.15625,-4.35742 0,-0.68894 0.75996,-2.70384 1.72851,-4.60547 3.11719,-6.08099 1.98986,-9.84221 -3.54687,-12.30273 -4.93556,-2.04926 -10.39062,-1.14552 -13.8418,2.21484 -3.1172,3.27952 -3.11394,6.64341 0.0352,11.45899 l 2.41992,3.51562 -3.11719,4.74414 c -3.63301,5.72949 -12.09765,13.11105 -12.98828,11.45899 -0.57149,-0.59053 -0.545,-3.86626 0.0547,-9.8418 0.95371,-9.84206 0.50352,-12.30301 -2.25,-13.91992 -2.5086,-1.39195 -4.67578,-1.14887 -7.19922,0.90039 -2.16348,1.80321 -2.25196,2.13011 -2.25195,11.45898 0,7.1355 -0.3199,9.84208 -1.29883,11.49414 -1.7293,2.62221 -5.00974,2.54195 -7.60743,-0.20508 -1.90371,-2.04925 -2.07812,-2.78728 -2.07812,-10.65039 0,-7.55729 -0.24972,-9.03361 -1.72852,-11.45898 -1.38418,-1.88405 -2.5123,-2.29297 -5.45507,-2.29297 -5.38087,0 -6.3086,1.39154 -6.16016,8.99805 0.0954,5.23738 -0.26791,7.13537 -2.07813,10.65039 -1.20976,2.46052 -3.63671,5.8362 -5.38085,7.38281 -2.85743,2.62221 -3.20254,2.78767 -4.49024,1.47656 -1.12442,-1.23026 -1.38476,-4.18387 -1.64453,-17.22461 -0.25977,-14.76309 -0.41562,-16.37918 -2.07812,-18.03125 -2.42327,-2.70656 -8.64648,-2.79129 -12.09766,-0.1582 -4.29954,3.83527 -5.03507,11.29837 -10.04492,14.20117 -2.07813,1.1459 -4.74999,-1.23013 -11.244144,-10.65039 -2.850911,-4.78306 -3.942619,-6.59492 -9.167968,-6.91601 -3.970714,-0.23762 -4.675777,0.0155 -6.939454,2.38086 -3.202544,3.27951 -3.28697,6.46723 -0.292968,8.99804 1.558597,1.23026 2.50781,3.19776 3.027343,6.08008 0.812697,4.42893 0.158714,16.38143 -1.123047,19.68555 l -0.742187,2.04883 -21.634766,0.008 c -8.312413,0.0444 -33.732413,0.64114 -38.222656,-0.89844 -5.529307,-2.04926 -3.462891,-18.84014 -3.462891,-31.98633 0.01039,-40.071248 -2.886135,-95.258413 -1.353515,-98.773434 0.78672,-1.803209 2.942765,-4.11141 7.533203,-4.603516 11.244162,-1.230255 218.57411,-0.239972 276.83594,-0.318359 1.90372,-0.04498 10.79881,0.393481 19.07422,0.134765 13.17385,0.738157 9.05411,-12.3729321 0.76757,-11.7050779 C 296.09556,6.7633175 278.87701,7.2140766 249.56055,7.2949219 176.82604,7.4917634 98.89649,7.2983966 96.298828,7.3144531 67.724554,7.5274635 9.4628966,6.807655 6.1230469,8.1679688 -0.77930993,10.70933 2.0410153,25.53321 2.2265625,36.992188 c 0.8646501,58.349373 2.078125,114.237172 2.078125,119.158202 0.3202545,9.03361 9.9081885,6.39851 17.6269535,6.82031 7.867203,0.40072 32.841786,0.39336 38.964843,0.40039 12.097678,0.0208 34.623044,0.54115 35.476563,-0.98437 2.337895,-2.37616 2.767237,-6.22119 -0.296875,-9.0332 -1.643947,-1.72237 -2.942772,-4.18397 -3.376953,-6.32813 -1.643947,-9.03361 -0.128187,-14.7631 2.943359,-11.45898 0.745901,0.78033 3.028122,4.18417 5.195312,7.55859 2.07813,3.36036 4.3418,6.15039 5.00977,6.15039 1.81836,0 4.41601,-3.1984 7.79296,-9.8418 3.46234,-6.57309 4.41602,-7.31015 5.97461,-4.99023 1.29883,1.88405 0.94942,9.03307 -1.125,19.68359 -0.66797,3.44121 -0.95195,6.8888 -0.70703,7.62696 0.64199,1.72236 3.02812,2.37695 8.64649,2.37695 6.49415,0.0155 10.39061,-1.72362 15.58593,-7.3125 3.54769,-3.62047 4.41602,-4.18218 4.41602,-2.7832 0,6.64339 12.09764,11.45856 22.48828,8.99804 2.76837,-0.75572 7.16211,-3.24409 8.38672,-2.99804 4.93556,1.1459 11.98631,-5.58924 20.52148,-13.46289 l 4.49024,-6.32618 1.55859,1.96875 c 3.1172,4.00713 3.42853,10.4043 -1.67773,10.4043 -2.85743,0 -8.34961,4.60413 -8.34961,8.18945 0,4.85074 4.08202,6.15223 11.35547,5.48438 8.12696,-0.78737 15.95702,-6.64518 20.29883,-10.40625 l 4.23047,-3.19531 v 4.67578 c 0,2.54136 0.46015,5.16806 1.03906,5.73047 0.56406,0.58349 2.94277,1.06445 5.38086,1.06445 2.33789,0 4.75,-0.47393 5.38086,-1.06445 0.61601,-0.63974 1.03906,-3.76241 1.03906,-7.80469 0,-5.58889 0.39687,-7.55731 2.33398,-11.45899 1.81836,-3.86652 2.77207,-4.84965 4.60157,-5.0957 2.68301,-0.32795 2.94335,0.30953 3.46289,10.65039 0.49355,9.03361 1.99276,12.3012 7.08789,14.76172 3.02813,1.39195 5.00975,1.71948 9.53711,1.39258 10.39064,-0.90336 13.84179,-5.23669 14.69531,-18.83985 l 0.54492,-8.04882 2.76758,-0.2793 c 3.63301,-0.36907 4.86133,0.76181 6.04883,5.83398 0.55293,2.29532 1.64394,4.85172 2.33789,5.73047 1.7293,2.04926 5.90038,1.96844 9.5,-0.15429 l 2.68359,-1.72266 0.55274,3.86719 c 1.12441,7.80335 6.23436,12.30287 14.69531,13.11133 10.39064,1.14589 19.03711,-3.93712 20.78125,-13.11133 0.59746,-2.95262 0.63449,-5.4144 0.0879,-7.38281 -1.83692,-3.37093 0.17094,-2.83154 2.99609,-2.2129 l 3.71094,0.77344 -0.40234,3.90039 c -0.95371,7.5573 3.6367,14.76409 10.39062,17.22461 10.39063,3.11431 22.48829,-1.31616 25.97656,-9.03515 1.38418,-3.36037 1.55936,-10.649 0.33789,-13.91797 -0.80526,-2.21447 -0.75335,-2.29494 2.85743,-2.29492 2.07813,0 4.34181,-0.24771 5.00976,-0.54297 1.20979,-0.47453 1.29492,0.9 1.29492,12.30273 0,11.45897 0.15629,12.30302 1.73243,13.95508 1.98909,2.04926 6.56838,2.37663 8.64648,0.51367 1.46956,-1.06505 1.72929,-2.70321 2.07813,-12.30273 l 0.42382,-11.45899 3.20313,-1.31055 c 4.15627,-1.63799 4.93553,-0.81995 5.78906,5.83399 0.74589,5.72948 2.76837,8.18945 6.67969,8.18945 3.20254,0 3.97071,-1.31038 4.41601,-7.20508 0.4416,-5.90523 2.42322,-9.84179 5.19532,-9.84179 2.59763,0 4.34182,3.27967 6.41992,12.30273 2.07813,9.03361 0.3284,16.37933 5.26953,18.83985 6.3086,2.78741 17.29298,-9.03251 22.48828,-16.37891 1.90371,-2.54136 3.89647,-4.67578 4.23047,-4.67578 1.38418,0 9.35156,4.49825 9.87109,5.69336 0.85724,2.29531 -0.9129,4.95699 -6.08593,4.71094 -11.68948,-1.76457 -15.54963,18.03249 2.17382,13.91992 3.5477,-0.54835 9.1289,-7.45117 10.16797,-7.45118 14.69537,0.76279 22.26559,1.71792 38.59375,1.41211 6.56837,0.0506 4.71288,0.27673 7.31055,-1.00976 3.28789,-1.55716 8.34958,1.05492 14.06445,2.39062 3.28789,0.78034 10.24216,0.25977 13.69336,0.25977 7.97851,-0.0223 10.13085,-1.64254 14.47266,-5.97656 3.82227,-3.83138 2.06699,-9.45508 5.75195,-9.45508 2.10781,0.0132 -0.82988,4.28803 2.69922,9.70117 3.71093,5.72949 9.53707,9.63242 17.33008,7.3125 8.57227,-2.54136 15.58597,-13.91952 13.8418,-22.95312 -0.56408,-3.44121 4.56442,-6.04688 7.27343,-6.04688 2.3379,0 2.68224,0.24676 2.24805,1.88477 -1.29884,5.09678 2.42323,10.65067 7.60742,12.30273 2.50862,0.49913 7.71875,-0.34516 11.24414,-1.88477 3.78516,-0.62215 3.8971,6.25815 -3.66211,8.19141 -8.6465,3.11431 -14.36136,2.65989 -16.66211,5.6582 -2.14866,3.97198 -2.13378,7.62738 3.82227,10.08789 3.1172,1.39197 14.2129,-0.17322 17.66406,-2.25585 5.5293,-2.95262 9.16602,-4.46402 10.87305,-11.03711 0.42304,-2.70657 1.20977,-3.8675 3.89648,-5.66016 3.46231,-2.21446 13.50781,-6.96016 19.55664,-13.84961 l 3.02735,-3.93555 3.11718,1.72266 c 1.72929,0.98421 3.4623,2.37631 3.89649,3.19531 1.29883,2.46052 -2.0781,5.83426 -7.5332,7.45117 -8.6465,2.70657 -10.39063,3.61966 -10.39063,6.64258 0,1.88406 0.80641,3.62139 2.50977,5.34375 3.63299,3.76107 8.16402,5.65866 15.95703,1.46875 l 6.45703,-1.69336 20.78125,1.47461 c 30.28131,-0.71355 57.14842,1.31858 60.48828,-1.96093 4.15627,-3.93685 3.28788,-12.47841 3.82227,-46.04688 -0.75334,-26.222067 -1.21484,-63.973688 -2.25391,-92.796875 0.1988,-8.190002 -4.71289,-17.1523436 -10.24219,-17.1523438 -4.2305,-0.03035 -28.6112,0.7062273 -102.05078,-0.097656 C 618.27137,6.2243108 546.27939,7.4512828 505.45898,6.9609375 461.66968,6.4688627 439.77544,6.3031194 427.1582,6.2714844 Z M 643.13477,133.51562 c 1.44725,0.12059 2.06443,0.50324 2.6582,1.14649 1.12441,1.1459 1.38412,5.90456 0.37109,7.45117 -0.3462,0.53428 -1.4707,1.39229 -2.50976,1.96875 -5.71484,3.11431 -9.53711,-2.62166 -5.26953,-8.18945 1.20975,-1.55716 3.1172,-2.37695 4.75,-2.37696 z m -315.81641,4.6021 c 3.73062,0.0536 5.51265,3.03523 5.58203,5.74947 0,3.69077 -1.90369,7.94354 -3.82227,8.99804 -2.24883,0.90336 -6.80658,0.10987 -7.77143,-1.06767 -1.13956,-8.52541 -0.43337,-13.77242 6.01167,-13.67984 z m 43.33398,1.05025 c 5.04688,0.43938 7.08789,2.6234 7.08789,6.96094 0,2.6222 -0.46815,3.68965 -2.16406,4.84961 -3.1172,2.1301 -9.5371,2.54112 -12.09765,0.7871 -2.94278,-2.21446 -2.59728,-6.95961 0.67578,-10.65039 2.07689,-1.81351 4.11779,-2.14078 6.49804,-1.94726 z m 228.3086,1.29492 h 0.004 0.002 c 3.2947,0.009 4.70769,2.26167 5.82031,3.69141 2.24882,2.95262 1.89842,7.52199 -1.0332,10.47461 -4.41604,4.46408 -10.13086,3.03274 -10.13086,-4.1836 0,-4.6727 1.17915,-10.0123 5.33789,-9.98242 z"
       transform="matrix(0.26458334,0,0,0.26458334,2.9808666,7.1597183)"
       id="path10"
       inkscape:connector-curvature="0"
       sodipodi:nodetypes="cccccccccccccccccccsccccccccccscccccsccccccccscccccccccccccccccccccccccscccccccccscccccccccccccscscccccccccccccccccccccccccccccccccccsccccccscccccsscccscscsccccccccccccccccccccccccsccccccscscccscccccccccccccsccccccccccccccscccccccccccccccccccccccscccccccccscc" />
  </g>
  <g
     style="fill:#ffffff;stroke:#010101;stroke-width:0.79374999;stroke-miterlimit:4;stroke-dasharray:none"
     id="g34"
     transform="translate(-2.9809709,-6.5233082)">
    <g
       style="fill:#ffffff;stroke:#010101;stroke-width:0.79374999;stroke-miterlimit:4;stroke-dasharray:none;filter:url(#a);enable-background:new"
       id="g32">
      <path
         style="stroke-width:2.99999976;stroke-miterlimit:4;stroke-dasharray:none"
         d="m 371.79492,40.589844 c -8.53516,-0.284712 -15.21484,6.467926 -16.32812,13.041015 -1.66251,10.720819 2.76464,20.176271 12.98828,23.023438 4.6758,2.112529 8.31253,6.608019 4.3418,10.087891 -2.26368,1.859448 -5.00975,0.218007 -5.64063,-2.396485 -2.53085,-4.42893 -9.31445,-2.710075 -9.98242,2.333985 -1.16524,5.975538 3.12831,9.455294 7.64453,10.720703 22.63677,5.342839 29.94731,-18.278857 14.32422,-27.101563 -4.00781,-2.615176 -8.31249,-2.017017 -9.64844,-7.873047 -3.66269,-12.935281 7.97852,-10.087133 7.97852,-5.658203 0.008,10.088115 12.32031,6.607342 11.31836,-0.693359 -1.44211,-10.028777 -6.12626,-16.040721 -16.9961,-15.484375 z"
         transform="matrix(0.26458334,0,0,0.26458334,2.9808666,7.1597183)"
         id="path14"
         inkscape:connector-curvature="0"
         sodipodi:nodetypes="cccccccccccc" />
      <path
         style="stroke-width:2.99999976;stroke-miterlimit:4;stroke-dasharray:none"
         d="m 405.19336,30.748047 c -3.15058,-0.0731 -6.38283,2.170022 -6.04883,7.3125 0.13644,2.587056 0.27006,50.616258 1.00586,56.591797 0.70137,5.729486 13.69334,7.592516 13.54492,-1.859375 -1.53263,-9.139056 -1.03144,-28.647656 -1.33203,-35.501953 15.62309,-4.710131 9.83397,26.784939 10.16797,36.908203 0.40078,7.873651 12.13475,7.380241 12.46875,-0.785157 -0.27477,-6.889443 1.50664,-29.490637 -4.04492,-43.234374 -2.53459,-6.327039 -9.53708,-7.628368 -20.26172,-4.5 -0.30274,-4.112576 0.1779,-6.572745 0.0781,-9.384766 -0.51606,-3.055706 -1.84297,-5.681457 -5.57812,-5.546875 z"
         transform="matrix(0.26458334,0,0,0.26458334,2.9808666,7.1597183)"
         id="path16"
         inkscape:connector-curvature="0"
         sodipodi:nodetypes="ccccccccccc" />
      <path
         style="stroke-width:2.99999976;stroke-miterlimit:4;stroke-dasharray:none"
         d="m 464.9558,42.808173 c -3.801,-0.0494 -7.94286,1.002385 -11.5037,1.650391 -4.56449,-1.873508 -9.9963,-1.135984 -9.77365,3.152343 0.50098,14.20069 0.0971,28.683772 0.42969,41.126954 -0.89805,13.567979 12.98831,14.832079 12.32031,-0.820313 0.63088,-9.77176 -0.60109,-19.859099 -0.002,-29.630859 0.60862,-4.780434 10.35351,1.367277 15.69727,-2.667969 3.29529,-4.112576 1.42171,-11.248234 -3.36914,-12.337891 -1.26291,-0.31669 -2.53183,-0.456189 -3.79883,-0.472656 z"
         transform="matrix(0.26458334,0,0,0.26458334,2.9808666,7.1597183)"
         id="path18"
         inkscape:connector-curvature="0"
         sodipodi:nodetypes="scccccccs" />
      <path
         id="path20"
         d="m 133.75273,18.364382 c -6.07768,0.08342 -6.00895,14.694259 -0.12175,14.694259 6.96134,0.375727 6.27404,-14.694259 0.12175,-14.694259 m -0.17379,3.236457 c 3.52486,-0.0092 2.68046,8.249245 0.29848,8.165544 -2.37608,-0.125552 -2.51354,-8.165544 -0.29848,-8.165544"
         style="stroke-width:0.79374999;stroke-miterlimit:4;stroke-dasharray:none"
         inkscape:connector-curvature="0" />
      <path
         id="path22"
         d="m 145.35647,18.503129 c -5.83221,-0.02511 -6.06786,14.694259 -0.40354,14.601258 7.98247,-0.08324 7.13808,-14.601258 0.40354,-14.601258 m -0.005,3.41316 c 3.20085,-0.112532 3.25976,7.486632 0.0614,7.495933 -2.71974,-0.03562 -2.44482,-7.468032 -0.0614,-7.495933"
         style="stroke-width:0.79374999;stroke-miterlimit:4;stroke-dasharray:none"
         inkscape:connector-curvature="0"
         sodipodi:nodetypes="cccccc" />
      <path
         style="stroke-width:2.99999976;stroke-miterlimit:4;stroke-dasharray:none"
         d="m 601.87305,41.644531 c -3.59222,0.337814 -9.57421,2.049969 -13.17383,4.148438 -4.00781,-1.388436 -8.27536,-4.673997 -12.2461,-1.095703 -1.36561,1.008808 -2.63163,3.152811 -3.1289,0.345703 -1.03162,-3.796222 -8.64649,-3.153614 -8.64649,0.818359 1.46582,15.466099 1.52894,35.150607 0.96485,47.804688 -0.0189,7.873654 11.65237,9.454274 10.98437,0.18164 0.40078,-6.924593 -0.72971,-20.66758 -0.33203,-29.80664 -0.76445,-8.190002 8.20117,-10.545845 7.97852,-2.271485 0.83123,10.404469 -1.06577,23.128735 -0.19727,33.533203 0.43419,4.745276 10.3164,7.873616 10.65039,-0.193359 0.83127,-11.669873 -1.23163,-23.44365 -1.06836,-36.554687 1.49923,-3.469327 8.3125,-4.1142 8.3125,0.271484 1.23205,12.302577 1.192,28.120273 1.0918,34.728516 -0.13304,8.822702 11.31642,8.824082 10.98242,-0.140626 -2.16023,-11.567744 2.99125,-35.397825 -2.98778,-46.216209 -1.8351,-3.320421 -4.71873,-5.41511 -9.18409,-5.553322 z"
         transform="matrix(0.26458334,0,0,0.26458334,2.9808666,7.1597183)"
         id="path24"
         inkscape:connector-curvature="0"
         sodipodi:nodetypes="cccccccccccccccsc" />
      <path
         style="stroke-width:2.99999976;stroke-miterlimit:4;stroke-dasharray:none"
         d="m 641.87331,43.403245 -0.0332,0.02734 c -5.93752,-0.06467 -10.31641,1.143524 -14.06445,6.644531 -10.50199,15.3958 -10.3907,62.216454 30.28125,48.859376 5.9746,-1.891083 2.72735,-14.200739 -2.89844,-11.669922 -12.65431,3.152976 -20.03906,1.03899 -21.04101,-8.507813 5.9746,-0.597551 19.03708,1.357469 24.71484,-0.660156 8.83204,-6.151287 3.49574,-34.447308 -16.95899,-34.693359 z m -0.63085,12.347656 c 9.01757,-0.446408 10.20509,7.592633 10.35351,12.478515 -5.48559,0.13422 -11.17087,0.333051 -16.66211,-0.316406 -0.50097,-8.506356 2.77576,-11.845759 6.3086,-12.162109 z"
         transform="matrix(0.26458334,0,0,0.26458334,2.9808666,7.1597183)"
         id="path26"
         inkscape:connector-curvature="0"
         sodipodi:nodetypes="ccccccccccccc" />
      <path
         style="stroke-width:2.99999976;stroke-miterlimit:4;stroke-dasharray:none"
         d="m 692.90021,41.65018 c -3.26192,-0.06924 -6.97657,0.820325 -10.98438,3.154297 -2.92796,-5.06163 -9.31444,-2.17582 -10.65039,2.175781 0.4676,8.822706 0.76563,34.693595 0.76563,47.453125 -0.0435,8.822707 14.32421,8.505007 13.32226,-1.048828 -0.0378,-12.302578 -0.83997,-26.536994 -0.16797,-37.257813 3.32871,-0.818997 8.01563,0.599994 10.98438,0.56836 11.50455,-2.042596 3.09619,-14.840562 -3.26953,-15.044922 z"
         transform="matrix(0.26458334,0,0,0.26458334,2.9808666,7.1597183)"
         id="path28"
         inkscape:connector-curvature="0"
         sodipodi:nodetypes="cccccccc" />
      <path
         style="stroke-width:2.99999976;stroke-miterlimit:4;stroke-dasharray:none"
         d="m 740.02148,40.986328 c -2.89427,0.04256 -5.83092,1.275821 -6.06054,4.216797 -0.73104,5.975539 -3.29999,16.379884 -5.26953,22.074219 -2.95389,-7.416695 -4.48809,-13.118993 -8.08985,-23.867188 -1.29614,-5.153607 -11.11843,-2.249118 -10.36914,2.119141 1.49923,11.037169 6.3086,21.01938 9.31446,31.529297 1.26912,4.464079 1.93084,8.822971 -0.16211,12.935547 -0.73108,2.175798 -2.33048,3.120709 -4.67579,3.152343 -4.3418,0.08822 -5.9746,2.837594 -5.9746,5.660157 0.0729,3.026439 2.62733,5.974659 6.30859,6.291019 4.67577,0.23656 13.80468,-0.18255 16.10547,-5.833988 1.49922,-4.745284 4.60154,-14.059414 6.01172,-18.839844 3.38808,-11.283224 4.45311,-14.552599 6.79101,-25.167969 1.23205,-3.796225 4.41454,-12.056909 -0.26758,-13.638671 -1.04022,-0.424 -2.34653,-0.650207 -3.66211,-0.63086 z"
         transform="matrix(0.26458334,0,0,0.26458334,2.9808666,7.1597183)"
         id="path30"
         inkscape:connector-curvature="0"
         sodipodi:nodetypes="scccccccccccccs" />
    </g>
  </g>
  <g
     style="fill:#ffffff;stroke:#010101;stroke-width:0.79374999;stroke-miterlimit:4;stroke-dasharray:none"
     id="g38"
     transform="translate(-2.9809709,-6.5233082)">
    <path
       style="fill:#ffffff;stroke:#010101;stroke-width:2.99999976;stroke-miterlimit:4;stroke-dasharray:none;filter:url(#a);enable-background:new"
       d="m 353.01998,-0.81796821 c -12.0794,1.14851519 -22.9857,13.72167521 -5.79146,16.28671821 -5.75197,7.66275 -4.23049,17.293652 4.89843,21.265625 2.94278,2.04926 12.13478,-3.865852 8.64649,-7.451172 -10.39065,-6.573093 -3.97072,-13.919078 1.55859,-8.998047 14.25423,9.144037 11.67246,-23.0983417 -9.31205,-21.10312421 z"
       transform="matrix(0.26458334,0,0,0.26458334,2.9808666,7.1597183)"
       id="path36"
       inkscape:connector-curvature="0"
       sodipodi:nodetypes="sccccs" />
  </g>
  <g
     style="fill:#ffffff;stroke:#010101;stroke-width:0.79374999;stroke-miterlimit:4;stroke-dasharray:none"
     id="g56"
     transform="translate(-2.9809709,-6.5233082)">
    <g
       style="fill:#ffffff;stroke:#010101;stroke-width:0.79374999;stroke-miterlimit:4;stroke-dasharray:none;filter:url(#b);enable-background:new"
       id="g54">
      <g
         id="g50"
         style="stroke-width:0.79374999;stroke-miterlimit:4;stroke-dasharray:none">
        <path
           style="stroke-width:2.99999976;stroke-miterlimit:4;stroke-dasharray:none;enable-background:new"
           d="m 43.748047,31.451172 c -8.27756,-0.182553 -8.349822,11.353463 1.183594,11.037109 2.130085,-0.09139 2.096674,0.148755 4.341797,0.0918 0.366274,16.696358 2.296876,30.895417 1.96289,47.451172 -0.15326,8.506356 13.322266,9.455666 13.322266,-0.130859 -0.05344,-17.329062 -0.861326,-30.088793 -2.160156,-46.75 5.009774,-0.534282 4.675777,0.325224 8.646484,-0.02344 5.97462,0.255194 5.492002,-11.212891 -1.00586,-11.212891 -8.851226,-0.472127 -19.065979,-0.303549 -26.291015,-0.462891 z"
           transform="matrix(0.26458334,0,0,0.26458334,2.9808666,7.1597183)"
           id="path40"
           inkscape:connector-curvature="0"
           sodipodi:nodetypes="scccccccs" />
        <path
           style="stroke-width:2.99999976;stroke-miterlimit:4;stroke-dasharray:none;enable-background:new"
           d="m 92.353516,42.699219 c -5.045078,0.08161 -10.829401,2.340094 -13.351563,5.589843 -4.230478,5.413138 -0.96115,16.063482 6.308594,10.404297 8.312515,-6.924593 14.324217,-3.153797 13.65625,6.607422 -33.287175,1.954352 -29.613347,44.290399 6.308593,29.316407 7.31056,6.608242 14.65822,-4.709907 7.64453,-10.087891 C 109.6246,74.441182 112.3543,66.883036 110.92188,56.794922 110.42782,46.07009 99.944291,42.752457 92.353516,42.699219 Z m 8.098974,33.268119 c 0.40078,3.469326 0.61696,9.860895 -0.913428,10.4936 -17.033234,3.866524 -13.512481,-10.774801 0.913428,-10.4936 z"
           transform="matrix(0.26458334,0,0,0.26458334,2.9808666,7.1597183)"
           id="path42"
           inkscape:connector-curvature="0"
           sodipodi:nodetypes="ccccccccccc" />
        <path
           style="stroke-width:2.99999976;stroke-miterlimit:4;stroke-dasharray:none;enable-background:new"
           d="m 128.69922,31.300781 c -4.88576,0.26831 -5.75217,6.106405 -5.64844,9.464844 0.31022,12.654081 0.8416,45.344593 0.50391,50.265625 -0.66426,9.45541 11.98633,9.13941 11.98633,0.3125 0.19963,-8.190005 0.01,-20.80837 0.14257,-30.896484 1.59942,-3.152973 12.54297,-9.702875 13.17383,-1.400391 1.24688,12.021377 0.58926,21.406299 0.68946,33.076172 0.0601,8.506353 12.65429,7.874731 12.65429,-0.220703 -0.0924,-7.100345 -0.49277,-22.847721 -1.83984,-34.623047 -1.22833,-10.755968 -9.2031,-19.262386 -24.56641,-11.740235 -0.19185,-3.114311 -0.36527,-6.291504 -0.29883,-9.138671 0.0438,-2.659334 -3.142,-5.120888 -6.79687,-5.09961 z"
           transform="matrix(0.26458334,0,0,0.26458334,2.9808666,7.1597183)"
           id="path44"
           inkscape:connector-curvature="0"
           sodipodi:nodetypes="cccccccccccc" />
        <path
           style="stroke-width:2.99999976;stroke-miterlimit:4;stroke-dasharray:none;enable-background:new"
           d="m 190.4948,42.264003 c -27.60942,0.506162 -26.17883,56.323888 1.12629,56.323888 24.30669,0.442892 22.83899,-56.323888 -1.12629,-56.323888 z m -1.36785,12.984044 c 10.65041,-0.442893 11.98557,30.582087 1.43164,30.898437 -13.32229,0.474531 -13.3215,-30.582087 -1.43164,-30.898437 z"
           transform="matrix(0.26458334,0,0,0.26458334,2.9808666,7.1597183)"
           id="path46"
           inkscape:connector-curvature="0"
           sodipodi:nodetypes="cccccc" />
        <path
           style="stroke-width:2.99999976;stroke-miterlimit:4;stroke-dasharray:none;enable-background:new"
           d="m 222.26562,41.404297 c -2.25505,0.0588 -5.28722,1.806541 -5.21679,4.142578 0.76445,17.012708 -0.40193,37.962565 0.24414,47.453125 -0.0765,6.924597 10.98437,6.607628 10.98437,0.976562 0.0317,-10.404468 1.49961,-24.95659 0.89844,-33.779296 1.43242,-2.741719 8.98047,-9.13834 8.98047,0.277343 0.21634,9.13906 0.50078,16.380478 0.18164,25.554688 -0.50098,14.833393 11.02148,9.946587 11.35547,1.447265 0.50098,-6.924596 -0.46426,-14.8336 -0.56445,-23.972656 -0.0367,-9.174209 10.35351,-11.704559 10.27929,0.44336 0.99454,9.947512 -3.74727,22.565988 1.79688,31.529296 2.29707,3.796226 11.65234,4.429563 10.3164,-3.152343 -2.69785,-15.466099 1.86232,-31.213179 -3.1289,-44.289063 -7.31056,-11.037169 -18.29492,-1.765368 -21.96875,-2.552734 -4.00782,-1.103717 -8.23828,-4.18222 -12.58008,-3.011719 -2.16348,0.787366 -4.49023,3.092576 -6.27148,3.082031 -0.0609,-2.126589 -1.95514,-4.235825 -5.30665,-4.148437 z"
           transform="matrix(0.26458334,0,0,0.26458334,2.9808666,7.1597183)"
           id="path48"
           inkscape:connector-curvature="0"
           sodipodi:nodetypes="scccccccccccccccs" />
      </g>
      <path
         style="stroke-width:2.99999976;stroke-miterlimit:4;stroke-dasharray:none;enable-background:new"
         d="m 297.99609,42.535156 c -4.47066,0.407194 -9.65323,0.781016 -13.07421,2.845703 -5.93752,3.367393 -1.5549,13.991482 7.5332,9.878907 6.64259,-4.639831 10.76172,2.231758 9.9082,9.771484 -37.10944,0.32795 -25.30865,42.88268 4.67578,30.685547 6.93947,6.889443 14.32424,-0.505138 8.27539,-5.412109 -2.12637,-19.156877 0.224,-32.620421 -2.62304,-40.072266 -2.59395,-4.780433 -9.29865,-8.188802 -14.69532,-7.697266 z m 1.58985,32.126953 c 0.89044,-0.02564 1.84509,0.0066 2.86328,0.105469 0.2078,2.787413 0.85351,10.826313 0.85351,11.634766 -16.03824,2.082653 -17.07347,-11.355632 -3.71679,-11.740235 z"
         transform="matrix(0.26458334,0,0,0.26458334,2.9808666,7.1597183)"
         id="path52"
         inkscape:connector-curvature="0"
         sodipodi:nodetypes="sccccccssccs" />
    </g>
  </g>
</svg>
